<?xml version="1.0" encoding="UTF-8"?>
<svg version="1.1" xmlns="http://www.w3.org/2000/svg" width="616" height="204">
<path d="M0 0 C1.70534994 -0.003462 3.41069764 -0.00823018 5.11604071 -0.01418173 C9.77467278 -0.02664694 14.43311928 -0.02054183 19.09175181 -0.01122308 C24.12659477 -0.0044145 29.16140659 -0.01492277 34.19624329 -0.02316284 C44.04862685 -0.03648309 53.90094174 -0.03363004 63.75332797 -0.02492492 C71.76257491 -0.01814206 79.77180264 -0.01723426 87.78105164 -0.02049637 C88.92218527 -0.02095607 90.06331891 -0.02141577 91.23903236 -0.0218894 C93.55742618 -0.0228486 95.87582 -0.02382124 98.19421381 -0.02480717 C119.91950598 -0.03335606 141.64476014 -0.02353478 163.37004608 -0.00740607 C182.00001232 0.00599665 200.62992247 0.00366841 219.2598877 -0.01016235 C240.90893111 -0.026227 262.55794123 -0.03253213 284.20698977 -0.02332556 C286.5167214 -0.02236994 288.82645304 -0.02142683 291.13618469 -0.02049637 C292.27253383 -0.02003354 293.40888298 -0.01957072 294.57966694 -0.01909386 C302.57669427 -0.01650664 310.57370044 -0.02086922 318.57072449 -0.02793503 C328.32013782 -0.03636005 338.06947871 -0.03404879 347.81888378 -0.0180928 C352.79049851 -0.01022361 357.76199258 -0.00709543 362.73360634 -0.01704025 C367.28958093 -0.02601564 371.84532364 -0.02100761 376.40127736 -0.0051076 C378.04445681 -0.00177181 379.68765607 -0.00342661 381.33082265 -0.01073496 C401.2855751 -0.0926415 418.46053904 5.01711328 432.95861816 19.38095093 C444.88278123 33.00317519 451.58226751 48.04608822 451.39611816 66.19345093 C451.38781982 67.2444397 451.37952148 68.29542847 451.37097168 69.37826538 C450.97695673 87.56605139 443.89511736 102.58062541 430.95861816 115.38095093 C430.36822754 116.00485718 429.77783691 116.62876343 429.16955566 117.27157593 C425.02193181 121.32784243 420.32780474 123.99801945 415.20861816 126.63095093 C414.5775415 126.96046753 413.94646484 127.28998413 413.29626465 127.62948608 C401.92317513 133.20550866 390.42523777 133.81874918 378.01335144 133.76863098 C376.31838864 133.7728103 374.62342864 133.77829109 372.92847377 133.78495079 C368.29844194 133.79934573 363.66858901 133.79517937 359.03854764 133.78778398 C354.03431812 133.78303979 349.03012662 133.79557324 344.02590942 133.80580139 C334.23268213 133.82297056 324.43951905 133.82383326 314.64628061 133.81858849 C306.68330189 133.81454185 298.7203421 133.81599622 290.75736427 133.82133675 C289.05528915 133.82245938 289.05528915 133.82245938 287.31882868 133.82360469 C285.01340605 133.82513622 282.70798343 133.82667457 280.40256081 133.82821966 C258.79735716 133.84193804 237.19218975 133.83651179 215.58698694 133.82503445 C195.83937567 133.81510402 176.09185812 133.82804065 156.34426131 133.85196864 C136.0476465 133.8763758 115.75107532 133.88596345 95.45444614 133.87931591 C84.06737309 133.87582713 72.68037209 133.8780332 61.29331017 133.89556694 C51.59923048 133.91030916 41.90527359 133.91089798 32.21119627 133.89349603 C27.26955246 133.88500012 22.32812781 133.88280198 17.38649559 133.89814758 C12.85436074 133.91204677 8.32263173 133.90716472 3.79052005 133.88790835 C2.15939904 133.88416399 0.52824512 133.88702468 -1.10284642 133.89752 C-20.43253861 134.01295878 -37.44588469 129.39011757 -51.82653809 115.63876343 C-65.92617167 101.26559198 -72.89327968 85.28310989 -73.07263184 64.81454468 C-72.26988659 46.8531197 -65.37469014 29.7124722 -52.04138184 17.38095093 C-36.17437516 4.11348476 -20.24221037 -0.09003172 0 0 Z " fill="#FDFDFD" transform="translate(126.0413818359375,33.619049072265625)"/>
<path d="M0 0 C0.99 0.33 1.98 0.66 3 1 C2.67 1.66 2.34 2.32 2 3 C2.86625 2.814375 3.7325 2.62875 4.625 2.4375 C8.05152628 1.99332067 10.64212371 2.28045508 14 3 C13.34 3.99 12.68 4.98 12 6 C14.31 6.66 16.62 7.32 19 8 C18.731875 8.53625 18.46375 9.0725 18.1875 9.625 C17.74704597 12.28760328 17.74704597 12.28760328 19.9375 15.25 C21.28240492 16.87303148 21.28240492 16.87303148 23 18 C26.62817937 18.12626995 26.62817937 18.12626995 28.99609375 17.87890625 C32.65501757 18.10001081 34.49675497 20.49675497 37 23 C36.67 24.32 36.34 25.64 36 27 C37.32 27.66 38.64 28.32 40 29 C40 29.99 40 30.98 40 32 C40.60328125 32.25394531 41.2065625 32.50789063 41.828125 32.76953125 C45.53518444 34.86975377 47.24501955 38.20563516 49 42 C50.27476091 49.64856549 46.61470639 57.0038273 42.3125 63.1875 C38.31577932 68.20379228 33.13951514 72.95349495 27 75 C26.484375 75.70125 25.96875 76.4025 25.4375 77.125 C19.35406542 84.30033309 11.00071223 89.11888208 1.62573242 90.29882812 C-0.77810651 90.43496428 -3.15515471 90.45897672 -5.5625 90.4375 C-6.36107422 90.45748047 -7.15964844 90.47746094 -7.98242188 90.49804688 C-13.98899941 90.49315154 -17.80829231 89.00322151 -23 86 C-22.65066406 85.19175781 -22.30132812 84.38351563 -21.94140625 83.55078125 C-21.48636719 82.48214844 -21.03132813 81.41351563 -20.5625 80.3125 C-20.11003906 79.25675781 -19.65757813 78.20101562 -19.19140625 77.11328125 C-17.80521915 73.75108462 -17.80521915 73.75108462 -17 69 C-23.6 69.99 -30.2 70.98 -37 72 C-39.64824278 68.46900963 -40.38208976 67.42895412 -41.125 63.4375 C-41.6235968 60.84392193 -42.16094802 58.51715595 -43 56 C-41.85923953 50.59471439 -39.45268949 45.61772618 -36.76953125 40.82421875 C-35.4340202 37.65831184 -35.92568685 35.21829486 -37 32.0625 C-38.50991684 27.43837969 -38.54681663 25.23628107 -36.5625 20.75 C-34 18 -34 18 -32.01171875 17.75 C-31.26535156 17.75 -30.51898438 17.75 -29.75 17.75 C-26.30015163 17.63084405 -25.2981718 17.29976915 -22.8125 14.80078125 C-21.46908472 13.01719392 -20.16907479 11.19980123 -18.921875 9.34765625 C-16.74265532 6.68564196 -15.23226606 6.02774756 -12 5 C-10.989375 4.484375 -9.97875 3.96875 -8.9375 3.4375 C-6.53509715 2.26185605 -4.58107897 1.55308835 -2 1 C-1.34 0.67 -0.68 0.34 0 0 Z " fill="#370706" transform="translate(139,55)"/>
<path d="M0 0 C1.70534994 -0.003462 3.41069764 -0.00823018 5.11604071 -0.01418173 C9.77467278 -0.02664694 14.43311928 -0.02054183 19.09175181 -0.01122308 C24.12659477 -0.0044145 29.16140659 -0.01492277 34.19624329 -0.02316284 C44.04862685 -0.03648309 53.90094174 -0.03363004 63.75332797 -0.02492492 C71.76257491 -0.01814206 79.77180264 -0.01723426 87.78105164 -0.02049637 C88.92218527 -0.02095607 90.06331891 -0.02141577 91.23903236 -0.0218894 C93.55742618 -0.0228486 95.87582 -0.02382124 98.19421381 -0.02480717 C119.91950598 -0.03335606 141.64476014 -0.02353478 163.37004608 -0.00740607 C182.00001232 0.00599665 200.62992247 0.00366841 219.2598877 -0.01016235 C240.90893111 -0.026227 262.55794123 -0.03253213 284.20698977 -0.02332556 C286.5167214 -0.02236994 288.82645304 -0.02142683 291.13618469 -0.02049637 C292.27253383 -0.02003354 293.40888298 -0.01957072 294.57966694 -0.01909386 C302.57669427 -0.01650664 310.57370044 -0.02086922 318.57072449 -0.02793503 C328.32013782 -0.03636005 338.06947871 -0.03404879 347.81888378 -0.0180928 C352.79049851 -0.01022361 357.76199258 -0.00709543 362.73360634 -0.01704025 C367.28958093 -0.02601564 371.84532364 -0.02100761 376.40127736 -0.0051076 C378.04445681 -0.00177181 379.68765607 -0.00342661 381.33082265 -0.01073496 C401.2855751 -0.0926415 418.46053904 5.01711328 432.95861816 19.38095093 C444.88278123 33.00317519 451.58226751 48.04608822 451.39611816 66.19345093 C451.38781982 67.2444397 451.37952148 68.29542847 451.37097168 69.37826538 C450.97695673 87.56605139 443.89511736 102.58062541 430.95861816 115.38095093 C430.36822754 116.00485718 429.77783691 116.62876343 429.16955566 117.27157593 C425.02193181 121.32784243 420.32780474 123.99801945 415.20861816 126.63095093 C414.5775415 126.96046753 413.94646484 127.28998413 413.29626465 127.62948608 C401.92317513 133.20550866 390.42523777 133.81874918 378.01335144 133.76863098 C376.31838864 133.7728103 374.62342864 133.77829109 372.92847377 133.78495079 C368.29844194 133.79934573 363.66858901 133.79517937 359.03854764 133.78778398 C354.03431812 133.78303979 349.03012662 133.79557324 344.02590942 133.80580139 C334.23268213 133.82297056 324.43951905 133.82383326 314.64628061 133.81858849 C306.68330189 133.81454185 298.7203421 133.81599622 290.75736427 133.82133675 C289.05528915 133.82245938 289.05528915 133.82245938 287.31882868 133.82360469 C285.01340605 133.82513622 282.70798343 133.82667457 280.40256081 133.82821966 C258.79735716 133.84193804 237.19218975 133.83651179 215.58698694 133.82503445 C195.83937567 133.81510402 176.09185812 133.82804065 156.34426131 133.85196864 C136.0476465 133.8763758 115.75107532 133.88596345 95.45444614 133.87931591 C84.06737309 133.87582713 72.68037209 133.8780332 61.29331017 133.89556694 C51.59923048 133.91030916 41.90527359 133.91089798 32.21119627 133.89349603 C27.26955246 133.88500012 22.32812781 133.88280198 17.38649559 133.89814758 C12.85436074 133.91204677 8.32263173 133.90716472 3.79052005 133.88790835 C2.15939904 133.88416399 0.52824512 133.88702468 -1.10284642 133.89752 C-20.43253861 134.01295878 -37.44588469 129.39011757 -51.82653809 115.63876343 C-65.92617167 101.26559198 -72.89327968 85.28310989 -73.07263184 64.81454468 C-72.26988659 46.8531197 -65.37469014 29.7124722 -52.04138184 17.38095093 C-36.17437516 4.11348476 -20.24221037 -0.09003172 0 0 Z M-54.04138184 26.38095093 C-66.40672277 42.48094364 -69.82282642 59.35581079 -67.54138184 79.31845093 C-64.37907278 95.72707555 -53.45485888 109.97207337 -40.07653809 119.44345093 C-26.40196794 128.17264886 -12.0818426 129.83351152 3.77616882 129.77536011 C5.44510837 129.78025819 7.11404453 129.78645221 8.78297502 129.793818 C13.33654152 129.81012448 17.88993385 129.80791865 22.44351923 129.80244303 C27.36735603 129.79976128 32.29114759 129.81432608 37.21496582 129.82653809 C46.84930372 129.84754656 56.48358139 129.85213555 66.11793949 129.8503502 C73.95358097 129.84904018 81.78920373 129.85285894 89.62484169 129.86027527 C91.88591093 129.86237457 94.14698016 129.86447217 96.4080494 129.86656809 C98.09640388 129.86813338 98.09640388 129.86813338 99.81886653 129.86973029 C121.08556898 129.88861442 142.35223691 129.88758817 163.61894426 129.88076097 C183.04762367 129.87518773 202.47617112 129.89600492 221.90481969 129.92912143 C241.88168873 129.96290656 261.85849465 129.9780207 281.83539277 129.97340441 C293.03980292 129.97116449 304.24409114 129.97633286 315.44847679 130.001297 C324.98838827 130.02237253 334.52811098 130.02584031 344.06803038 130.00699741 C348.92909172 129.9978778 353.78980167 129.99657993 358.65083504 130.01735306 C363.11284747 130.036209 367.57422434 130.03139806 372.03621367 130.00880724 C373.6384238 130.00465802 375.24068408 130.00869543 376.84284093 130.02240318 C396.24958974 130.17695169 414.35912985 125.32935735 428.79846191 111.72860718 C441.51928244 97.90362863 447.63126897 81.23478316 447.19689941 62.61923218 C446.49153067 46.95865626 438.89533994 31.87818578 427.81408691 20.93563843 C412.53934646 7.26986516 396.21481277 4.06951872 376.39225769 4.12025452 C374.71409667 4.11723068 373.03593703 4.11334004 371.3577798 4.10866195 C366.76500682 4.09840306 362.17231208 4.10055839 357.57953274 4.10484254 C352.61894146 4.10731361 347.65836883 4.09829086 342.69778442 4.09080505 C332.98651333 4.07806648 323.27526991 4.07626333 313.56399187 4.07860532 C305.66864803 4.08038962 297.77331258 4.07863641 289.87796974 4.07438087 C288.75350601 4.07378569 287.62904229 4.0731905 286.4705039 4.07257727 C284.18601475 4.0713655 281.90152559 4.07015136 279.61703644 4.0689349 C258.20075926 4.05806254 236.78449783 4.06022038 215.36821977 4.06631974 C195.7872761 4.07148827 176.20638219 4.06023459 156.62544837 4.04122152 C136.50745353 4.02183711 116.38948223 4.01358821 96.271478 4.01734477 C84.98170097 4.01925594 73.69196628 4.01677744 62.40219688 4.00263023 C52.79074179 3.99070777 43.17935512 3.98932126 33.56789907 4.0014204 C28.66705473 4.00730305 23.76633546 4.00842546 18.8654995 3.996418 C14.37292826 3.98553903 9.88058623 3.98868647 5.38802562 4.00267968 C3.76899234 4.00532107 2.14994098 4.00297774 0.53092548 3.99494382 C-21.36642797 3.89388769 -39.17794462 9.99305862 -54.04138184 26.38095093 Z " fill="#090909" transform="translate(126.0413818359375,33.619049072265625)"/>
<path d="M0 0 C0.70602859 0.02361099 1.41205719 0.04722198 2.13948059 0.07154846 C4.39137632 0.1480357 6.64291512 0.23212372 8.89453125 0.31640625 C10.42250866 0.36964193 11.95050341 0.42238224 13.47851562 0.47460938 C17.2215796 0.60363049 20.96434144 0.73946837 24.70703125 0.87890625 C24.74944848 3.211854 24.74796062 5.54593192 24.70703125 7.87890625 C23.70703125 8.87890625 23.70703125 8.87890625 20.64453125 8.94140625 C19.67515625 8.92078125 18.70578125 8.90015625 17.70703125 8.87890625 C18.19042969 9.73355469 18.19042969 9.73355469 18.68359375 10.60546875 C20.35926338 14.32775778 20.27087939 17.87628058 19.70703125 21.87890625 C16.57868425 28.01973554 12.18225889 31.67732885 5.70703125 33.87890625 C3.61103265 34.15767143 1.50440514 34.36479369 -0.60546875 34.50390625 C-1.67410156 34.57867187 -2.74273437 34.6534375 -3.84375 34.73046875 C-4.65199219 34.77945313 -5.46023438 34.8284375 -6.29296875 34.87890625 C-6.62296875 36.19890625 -6.95296875 37.51890625 -7.29296875 38.87890625 C-6.66841797 38.88301514 -6.04386719 38.88712402 -5.40039062 38.89135742 C-2.53033267 38.9245511 0.33767412 38.99521991 3.20703125 39.06640625 C4.18929688 39.07220703 5.1715625 39.07800781 6.18359375 39.08398438 C12.71812387 39.28002028 17.82598273 40.26773827 22.70703125 44.87890625 C25.22352813 49.17890972 25.35882915 52.9945473 24.70703125 57.87890625 C23.30149681 62.18808968 21.15981292 64.88102063 17.26953125 67.19140625 C10.33974115 70.4739384 5.39109007 71.21646068 -2.23046875 71.19140625 C-3.69516602 71.21557617 -3.69516602 71.21557617 -5.18945312 71.24023438 C-11.916183 71.24479487 -16.37486193 70.40267431 -21.60546875 65.87890625 C-23.89720808 63.16277075 -24.27030914 61.07906615 -24.66796875 57.56640625 C-24.18673052 52.83423031 -22.69555755 51.13026888 -19.29296875 47.87890625 C-16.48046875 46.50390625 -16.48046875 46.50390625 -14.29296875 45.87890625 C-14.95296875 45.34265625 -15.61296875 44.80640625 -16.29296875 44.25390625 C-18.29296875 41.87890625 -18.29296875 41.87890625 -18.79296875 38.87890625 C-18.18963662 35.25891345 -16.99782155 34.24565245 -14.29296875 31.87890625 C-14.0602687 29.53563639 -14.0602687 29.53563639 -16.73046875 27.37890625 C-17.57609375 26.55390625 -18.42171875 25.72890625 -19.29296875 24.87890625 C-21.38602451 20.69279473 -20.71661483 15.43757677 -20.29296875 10.87890625 C-17.99667416 5.93304099 -14.9797301 3.57130107 -10.29296875 0.87890625 C-6.75214735 -0.30136755 -3.66941502 -0.14493235 0 0 Z " fill="#BA4EB5" transform="translate(393.29296875,79.12109375)"/>
<path d="M0 0 C4.96787195 2.53716318 8.04324819 5.52201424 10.9375 10.3125 C12.125 14.3125 12.125 14.3125 12.125 27.3125 C1.895 27.3125 -8.335 27.3125 -18.875 27.3125 C-17.47398851 33.84358604 -17.47398851 33.84358604 -15 36.75 C-8.59765793 39.95117104 -1.27121812 39.01037909 5.375 36.8125 C6.6125 36.3175 7.85 35.8225 9.125 35.3125 C9.125 38.9425 9.125 42.5725 9.125 46.3125 C0.54367071 49.92569128 -8.78663871 51.11024448 -17.8515625 48.43359375 C-23.26055489 45.95787669 -27.90325466 42.55321306 -30.875 37.3125 C-33.89477197 28.56665522 -34.7315583 18.38475336 -30.9375 9.75 C-24.61411237 -1.12115352 -11.39773743 -4.74268269 0 0 Z " fill="#BA4EB5" transform="translate(483.875,80.6875)"/>
<path d="M0 0 C4.29 0 8.58 0 13 0 C13.01458252 0.97348389 13.02916504 1.94696777 13.04418945 2.94995117 C13.10233296 6.57515476 13.17956377 10.1997476 13.26245117 13.82446289 C13.29562532 15.39076801 13.32368058 16.95719051 13.34643555 18.52368164 C13.38012116 20.78061763 13.43244049 23.03648526 13.48828125 25.29296875 C13.49467117 25.98899704 13.5010611 26.68502533 13.50764465 27.40214539 C13.63674961 31.70891733 14.20435695 34.65725347 17 38 C21.11078258 38.52200414 23.62065052 38.6170774 27.375 36.9375 C32.57309948 30.739766 31.44123926 21.14645878 31.625 13.5625 C31.66367187 12.25861328 31.70234375 10.95472656 31.7421875 9.61132812 C31.83606452 6.4077749 31.919104 3.2039073 32 0 C36.29 0 40.58 0 45 0 C45 16.17 45 32.34 45 49 C41.37 49 37.74 49 34 49 C33.67 47.35 33.34 45.7 33 44 C32.18595703 44.52400391 32.18595703 44.52400391 31.35546875 45.05859375 C30.64003906 45.51363281 29.92460937 45.96867187 29.1875 46.4375 C28.12595703 47.11619141 28.12595703 47.11619141 27.04296875 47.80859375 C22.24292827 50.60785254 17.39879349 50.55987488 12 50 C7.24914096 48.6564862 4.74770015 47.08228503 1.91259766 42.97851562 C-0.52079878 38.59933524 -0.51488408 34.70220928 -0.390625 29.78515625 C-0.38496521 28.92941513 -0.37930542 28.07367401 -0.37347412 27.19200134 C-0.35123507 24.48157789 -0.30106425 21.77251809 -0.25 19.0625 C-0.22991878 17.215514 -0.21167086 15.3685071 -0.1953125 13.52148438 C-0.15141147 9.0138043 -0.08247269 4.50713267 0 0 Z " fill="#B94BB4" transform="translate(258,80)"/>
<path d="M0 0 C4.2502579 2.50015171 6.9531181 5.40623621 9.1875 9.875 C9.27448228 12.79199274 9.30301923 15.68482548 9.28515625 18.6015625 C9.2837413 19.46437836 9.28232635 20.32719421 9.28086853 21.21615601 C9.27526188 23.9774723 9.26270827 26.73870812 9.25 29.5 C9.24498586 31.3697905 9.2404228 33.23958226 9.23632812 35.109375 C9.22529029 39.69794777 9.2080212 44.28646023 9.1875 48.875 C4.8975 48.875 0.6075 48.875 -3.8125 48.875 C-3.83231934 47.8962793 -3.85213867 46.91755859 -3.87255859 45.90917969 C-3.94874624 42.27106403 -4.03744295 38.63334147 -4.12988281 34.99560547 C-4.16811829 33.42244235 -4.20298066 31.84919342 -4.234375 30.27587891 C-4.28014422 28.01173277 -4.33811761 25.74817453 -4.3984375 23.484375 C-4.40998871 22.78318542 -4.42153992 22.08199585 -4.43344116 21.35955811 C-4.54209973 17.7482164 -4.72208263 14.89315035 -6.8125 11.875 C-10.02236848 10.27006576 -13.34030314 10.25619264 -16.8125 10.875 C-20.78550468 14.54238894 -21.67248001 17.74989284 -22.01782227 22.99121094 C-22.07280884 24.78220215 -22.07280884 24.78220215 -22.12890625 26.609375 C-22.17080078 27.90488281 -22.21269531 29.20039062 -22.25585938 30.53515625 C-22.29566671 31.89843476 -22.33537906 33.26171606 -22.375 34.625 C-22.41822274 36.00391875 -22.46183821 37.38282526 -22.50585938 38.76171875 C-22.61193899 42.13269306 -22.71272365 45.50383323 -22.8125 48.875 C-27.1025 48.875 -31.3925 48.875 -35.8125 48.875 C-35.8125 32.705 -35.8125 16.535 -35.8125 -0.125 C-32.5125 -0.125 -29.2125 -0.125 -25.8125 -0.125 C-23.6875 2.375 -23.6875 2.375 -22.8125 4.875 C-22.07 4.25625 -21.3275 3.6375 -20.5625 3 C-14.01564456 -2.05893375 -7.87865528 -2.3248491 0 0 Z " fill="#B94BB4" transform="translate(352.8125,80.125)"/>
<path d="M0 0 C0.99 0 1.98 0 3 0 C5.66666667 0 8.33333333 0 11 0 C10.67 0.66 10.34 1.32 10 2 C11.98567708 1.93489583 13.97135417 1.86979167 15.95703125 1.8046875 C18 2 18 2 21 4 C21 6.33333333 21 8.66666667 21 11 C21.66 11.99 22.32 12.98 23 14 C23 14.99 23 15.98 23 17 C19.37 17.33 15.74 17.66 12 18 C16.95 18 21.9 18 27 18 C27 17.34 27 16.68 27 16 C32.42857143 15.63809524 32.42857143 15.63809524 34.875 17.1875 C36.34781139 19.56036279 36.22223194 21.25913944 36 24 C34.68 23.67 33.36 23.34 32 23 C32.495 21.515 32.495 21.515 33 20 C32.34 19.67 31.68 19.34 31 19 C30.505 21.475 30.505 21.475 30 24 C29.38125 23.2575 29.38125 23.2575 28.75 22.5 C26.87797662 20.56613908 26.87797662 20.56613908 23 21 C23.825 21.61875 24.65 22.2375 25.5 22.875 C26.325 23.57625 27.15 24.2775 28 25 C28 25.66 28 26.32 28 27 C25.44385911 25.82024267 23.36113159 24.53783987 21.0625 22.875 C17.92708904 20.95536063 16.57440384 20.5794819 13 21 C13 23.64 13 26.28 13 29 C13.66 29.33 14.32 29.66 15 30 C15 30.66 15 31.32 15 32 C11.0186217 33.3271261 7.14954773 33.06915913 3 33 C3 33.66 3 34.32 3 35 C8.4185766 35.22577402 12.77487721 34.46670113 18 33 C23 38.375 23 38.375 23 44 C18.05 44 13.1 44 8 44 C14.93 44.495 14.93 44.495 22 45 C19.81818182 52.27272727 19.81818182 52.27272727 16.1875 55.5 C12.72219735 57.13073066 10.77221398 57.24077962 7 57 C6.195625 57.2475 5.39125 57.495 4.5625 57.75 C0.64190692 58.13249689 -2.00334085 56.30853742 -5 54 C-8.45206422 50.21386504 -8.49886833 46.29449349 -8.3671875 41.37109375 C-7.85360549 38.05466523 -6.335849 36.335849 -4 34 C-3.67 33.01 -3.34 32.02 -3 31 C-1.329375 30.87625 -1.329375 30.87625 0.375 30.75 C4.05753944 30.42126213 4.05753944 30.42126213 5.4375 27.9375 C5.7159375 26.9784375 5.7159375 26.9784375 6 26 C7.32 26.33 8.64 26.66 10 27 C10 25.68 10 24.36 10 23 C8.35 23 6.7 23 5 23 C4.34 24.32 3.68 25.64 3 27 C2.34 24.69 1.68 22.38 1 20 C0.01 20 -0.98 20 -2 20 C-0.68 21.32 0.64 22.64 2 24 C1.67 24.66 1.34 25.32 1 26 C0.49210937 25.4946875 -0.01578125 24.989375 -0.5390625 24.46875 C-4.83296726 20.28955418 -4.83296726 20.28955418 -10.375 18.4375 C-13.14455834 18.78239082 -13.14455834 18.78239082 -15 21 C-17.625 21.125 -17.625 21.125 -20 21 C-20.33 22.32 -20.66 23.64 -21 25 C-22.32 23.35 -23.64 21.7 -25 20 C-25.66 20.33 -26.32 20.66 -27 21 C-26.835 21.598125 -26.67 22.19625 -26.5 22.8125 C-26 25 -26 25 -26 28 C-24.68 27.67 -23.36 27.34 -22 27 C-22.33 28.98 -22.66 30.96 -23 33 C-26.35289282 32.71260919 -28.03956604 31.97186415 -30.8125 30 C-33.45611606 26.37446941 -33.49556665 24.34483259 -33.37109375 19.98828125 C-33 18 -33 18 -31 16 C-27.87803871 15.82655771 -25.0696361 15.67567259 -22.0546875 16.58984375 C-18.183426 17.36262409 -14.53427043 15.52407201 -11 14 C-10.29875 13.4225 -9.5975 12.845 -8.875 12.25 C-7 11 -7 11 -3.4375 11.25 C0 12 0 12 3 13 C8.53809295 13.27690465 12.75119447 12.74960184 18 11 C16.51886719 10.92652344 16.51886719 10.92652344 15.0078125 10.8515625 C13.72648437 10.77679688 12.44515625 10.70203125 11.125 10.625 C9.84882813 10.55539063 8.57265625 10.48578125 7.2578125 10.4140625 C4 10 4 10 2 8 C-3.52395414 7.10443785 -8.8669225 6.83146984 -13.859375 9.56640625 C-16.03538532 11.28157362 -18.05432619 13.02918829 -20 15 C-20.33 14.34 -20.66 13.68 -21 13 C-7.64298401 -3.82149201 -7.64298401 -3.82149201 0 0 Z " fill="#CE9483" transform="translate(137,60)"/>
<path d="M0 0 C0.99 0.33 1.98 0.66 3 1 C2.67 1.66 2.34 2.32 2 3 C2.86625 2.814375 3.7325 2.62875 4.625 2.4375 C8.05152628 1.99332067 10.64212371 2.28045508 14 3 C13.34 3.99 12.68 4.98 12 6 C12.99 6.66 13.98 7.32 15 8 C12.36 8 9.72 8 7 8 C7.33 7.34 7.66 6.68 8 6 C3.83861737 5.91840426 0.0527516 6.01751476 -4 7 C-4 6.34 -4 5.68 -4 5 C-11.07465883 7.05808257 -16.00543546 10.55453727 -21 16 C-21 16.66 -21 17.32 -21 18 C-20.57332031 17.566875 -20.14664063 17.13375 -19.70703125 16.6875 C-14.24630619 11.82351396 -9.95268959 11.3934286 -2.7578125 11.59375 C0 12 0 12 2 14 C5.63715353 14.38796304 9.25594045 14.50785545 12.91015625 14.65625 C13.92980469 14.7696875 14.94945312 14.883125 16 15 C16.495 15.99 16.495 15.99 17 17 C10.84203034 18.7594199 4.61719847 20.499814 -1.5625 17.9375 C-5.0211441 16.60725227 -7.4440159 17.14392975 -11 18 C-11.46019531 18.48597656 -11.92039062 18.97195312 -12.39453125 19.47265625 C-14.50807202 21.48334832 -16.21575545 21.73012323 -19.0625 22.25 C-19.94035156 22.42015625 -20.81820312 22.5903125 -21.72265625 22.765625 C-24 23 -24 23 -26 22 C-29.54171978 21.83330682 -29.54171978 21.83330682 -33 22 C-34.55950551 23.55950551 -34.28196698 25.08877131 -34.375 27.25 C-34.33894014 31.02426566 -34.12850696 31.82865739 -31.75 35 C-29.33025043 36.75981787 -27.92793994 37.67467334 -25 38 C-25 37.34 -25 36.68 -25 36 C-26.485 35.505 -26.485 35.505 -28 35 C-26.515 34.505 -26.515 34.505 -25 34 C-24.67 33.34 -24.34 32.68 -24 32 C-25.98 32.495 -25.98 32.495 -28 33 C-28.28875 31.88625 -28.5775 30.7725 -28.875 29.625 C-29.69241329 25.99708908 -29.69241329 25.99708908 -32 24 C-29.75 23.6875 -29.75 23.6875 -27 24 C-24.6875 26.5 -24.6875 26.5 -23 29 C-22.67 28.01 -22.34 27.02 -22 26 C-19 24.875 -19 24.875 -16 24 C-15.67 23.67 -15.34 23.34 -15 23 C-12.4375 22.5 -12.4375 22.5 -9 23 C-6.08909952 25.09041327 -3.53775537 27.47512663 -1 30 C-2.65 27.69 -4.3 25.38 -6 23 C-3.125 23.6875 -3.125 23.6875 0 25 C1.375 27.625 1.375 27.625 2 30 C2.33 29.34 2.66 28.68 3 28 C4.65 28 6.3 28 8 28 C8.495 30.475 8.495 30.475 9 33 C7.35 32.67 5.7 32.34 4 32 C3.34 32.99 2.68 33.98 2 35 C-1.625 35.6875 -1.625 35.6875 -5 36 C-5.103125 36.5775 -5.20625 37.155 -5.3125 37.75 C-6 40 -6 40 -7.5234375 41.83203125 C-10.0769348 45.5812138 -9.39691004 49.62690192 -9 54 C-8.5048792 56.95976672 -8.5048792 56.95976672 -7 59 C-4.65245602 60.33903214 -4.65245602 60.33903214 -2 61 C-1.06994141 61.28617188 -1.06994141 61.28617188 -0.12109375 61.578125 C2.29476624 62.05862754 4.13277397 61.86178662 6.5625 61.5 C9.68277534 61.03695745 10.91625283 60.97208428 14 62 C11.02819057 63.89865603 8.48539917 65.35455571 5 66 C5 66.99 5 67.98 5 69 C-6.96129949 65.25031067 -6.96129949 65.25031067 -11 60 C-11.33 59.01 -11.66 58.02 -12 57 C-12.66 57 -13.32 57 -14 57 C-13.67 56.01 -13.34 55.02 -13 54 C-13 50.38970831 -13.96092582 47.44193324 -15 44 C-18.93075644 44.57452746 -18.93075644 44.57452746 -22 47 C-22 45.68 -22 44.36 -22 43 C-23.485 43.495 -23.485 43.495 -25 44 C-25.33 47.63 -25.66 51.26 -26 55 C-24.515 55.495 -24.515 55.495 -23 56 C-25.6465335 58.6465335 -28.56221264 59.59941997 -32 61 C-31.7834375 59.82244141 -31.7834375 59.82244141 -31.5625 58.62109375 C-30.57001253 53.00389036 -29.7406807 47.70502463 -30 42 C-30.99 41.67 -31.98 41.34 -33 41 C-33.268125 41.825 -33.53625 42.65 -33.8125 43.5 C-34.42863353 45.3159725 -35.05548667 47.131544 -35.80078125 48.8984375 C-38.39363173 55.1163633 -38.80843413 60.40796592 -37 67 C-36.36908447 66.96447021 -35.73816895 66.92894043 -35.08813477 66.89233398 C-32.24652446 66.73532591 -29.404551 66.5863081 -26.5625 66.4375 C-25.56927734 66.38142578 -24.57605469 66.32535156 -23.55273438 66.26757812 C-22.60849609 66.21923828 -21.66425781 66.17089844 -20.69140625 66.12109375 C-19.37958374 66.05039673 -19.37958374 66.05039673 -18.04125977 65.97827148 C-16 66 -16 66 -15 67 C-14.87364577 69.08043713 -14.82418295 71.16576212 -14.8125 73.25 C-14.79832031 74.38953125 -14.78414062 75.5290625 -14.76953125 76.703125 C-14.99407696 79.91527045 -15.62703095 82.11296626 -17 85 C-16.01 85 -15.02 85 -14 85 C-13.34 83.68 -12.68 82.36 -12 81 C-11.34 81 -10.68 81 -10 81 C-9.505 79.515 -9.505 79.515 -9 78 C-8.01 78.495 -8.01 78.495 -7 79 C-8.05875074 82.40312738 -9.00902154 85.01353231 -11 88 C-7.37 88.33 -3.74 88.66 0 89 C0 89.33 0 89.66 0 90 C-15.74487472 90.738041 -15.74487472 90.738041 -23 86 C-22.65066406 85.19175781 -22.30132812 84.38351563 -21.94140625 83.55078125 C-21.48636719 82.48214844 -21.03132813 81.41351563 -20.5625 80.3125 C-20.11003906 79.25675781 -19.65757813 78.20101562 -19.19140625 77.11328125 C-17.80521915 73.75108462 -17.80521915 73.75108462 -17 69 C-23.6 69.99 -30.2 70.98 -37 72 C-39.64824278 68.46900963 -40.38208976 67.42895412 -41.125 63.4375 C-41.6235968 60.84392193 -42.16094802 58.51715595 -43 56 C-41.85923953 50.59471439 -39.45268949 45.61772618 -36.76953125 40.82421875 C-35.4340202 37.65831184 -35.92568685 35.21829486 -37 32.0625 C-38.50991684 27.43837969 -38.54681663 25.23628107 -36.5625 20.75 C-34 18 -34 18 -32.01171875 17.75 C-31.26535156 17.75 -30.51898438 17.75 -29.75 17.75 C-26.30015163 17.63084405 -25.2981718 17.29976915 -22.8125 14.80078125 C-21.46908472 13.01719392 -20.16907479 11.19980123 -18.921875 9.34765625 C-16.74265532 6.68564196 -15.23226606 6.02774756 -12 5 C-10.989375 4.484375 -9.97875 3.96875 -8.9375 3.4375 C-6.53509715 2.26185605 -4.58107897 1.55308835 -2 1 C-1.34 0.67 -0.68 0.34 0 0 Z " fill="#420E12" transform="translate(139,55)"/>
<path d="M0 0 C4.29 0 8.58 0 13 0 C13.11338567 8.69336636 13.20493558 17.38623411 13.25906086 26.0801754 C13.2850507 30.11802221 13.32025105 34.1553328 13.37719727 38.19287109 C13.43190084 42.09625064 13.46150017 45.99911754 13.47438622 49.9028511 C13.48355799 51.38510829 13.50146717 52.86734039 13.52865028 54.34937668 C13.68046998 62.97718989 13.56970736 70.91814403 8 78 C1.26428363 83.16194248 -5.6887177 83.95846748 -14 83 C-15 82 -15 82 -15.09765625 79.49609375 C-15.08605469 78.48675781 -15.07445312 77.47742188 -15.0625 76.4375 C-15.05347656 75.42558594 -15.04445312 74.41367188 -15.03515625 73.37109375 C-15.02355469 72.58863281 -15.01195312 71.80617188 -15 71 C-13.96939453 70.94392578 -13.96939453 70.94392578 -12.91796875 70.88671875 C-12.01691406 70.82097656 -11.11585938 70.75523437 -10.1875 70.6875 C-9.29417969 70.62949219 -8.40085938 70.57148438 -7.48046875 70.51171875 C-4.62013859 69.92163489 -3.70020805 69.34381993 -2 67 C-0.87959978 63.59280112 -0.84464472 60.33176606 -0.79467773 56.76269531 C-0.7647599 54.87118744 -0.7647599 54.87118744 -0.73423767 52.94146729 C-0.71725599 51.57035443 -0.70037709 50.1992403 -0.68359375 48.828125 C-0.66301165 47.42136033 -0.64201485 46.01460167 -0.62062073 44.60784912 C-0.56552965 40.91226073 -0.51606345 37.21661774 -0.46777344 33.52093506 C-0.41746351 29.74698041 -0.36182707 25.97310468 -0.30664062 22.19921875 C-0.19921769 14.79954425 -0.09823027 7.39980329 0 0 Z " fill="#B94BB4" transform="translate(230,65)"/>
<path d="M0 0 C4.29 0 8.58 0 13 0 C13 22.44 13 44.88 13 68 C8.71 68 4.42 68 0 68 C0 45.56 0 23.12 0 0 Z " fill="#B94CB4" transform="translate(427,61)"/>
<path d="M0 0 C0 4.29 0 8.58 0 13 C-2.99479167 13.390625 -5.98958333 13.78125 -8.984375 14.171875 C-12.43549768 15.11959263 -13.76122515 16.25907004 -16 19 C-17.42267862 21.84535725 -17.21971869 24.36218552 -17.31640625 27.5390625 C-17.35830078 28.84101562 -17.40019531 30.14296875 -17.44335938 31.484375 C-17.48317299 32.86458045 -17.52288522 34.24478883 -17.5625 35.625 C-17.60569407 37.01303415 -17.64930865 38.40105528 -17.69335938 39.7890625 C-17.79971934 43.19258129 -17.90038918 46.596277 -18 50 C-22.29 50 -26.58 50 -31 50 C-31 33.83 -31 17.66 -31 1 C-27.7 1 -24.4 1 -21 1 C-20.01 3.31 -19.02 5.62 -18 8 C-16.9171875 6.8553125 -16.9171875 6.8553125 -15.8125 5.6875 C-10.42061669 0.53525595 -7.27830546 -0.37008333 0 0 Z " fill="#BA4CB5" transform="translate(538,79)"/>
<path d="M0 0 C0.99 0 1.98 0 3 0 C3.391875 0.66 3.78375 1.32 4.1875 2 C5.0846875 2.99 5.0846875 2.99 6 4 C7.97602507 3.96760615 9.95315712 3.92892018 11.92578125 3.80859375 C15.6254537 4.14999479 17.44734294 6.44734294 20 9 C19.67 10.32 19.34 11.64 19 13 C20.32 13.66 21.64 14.32 23 15 C23 15.99 23 16.98 23 18 C23.90492188 18.38091797 23.90492188 18.38091797 24.828125 18.76953125 C28.53518444 20.86975377 30.24501955 24.20563516 32 28 C33.27476091 35.64856549 29.61470639 43.0038273 25.3125 49.1875 C21.31577932 54.20379228 16.13951514 58.95349495 10 61 C9.484375 61.70125 8.96875 62.4025 8.4375 63.125 C4.91140634 67.28398227 0.52243638 70.00518049 -4 73 C-4.66 72.67 -5.32 72.34 -6 72 C-4.68 68.7 -3.36 65.4 -2 62 C1.465 61.505 1.465 61.505 5 61 C5 60.34 5 59.68 5 59 C3.35 59 1.7 59 0 59 C0 55.7 0 52.4 0 49 C0.66 49.33 1.32 49.66 2 50 C2.33 49.54625 2.66 49.0925 3 48.625 C5.56314365 46.54244579 7.87792231 46.23025813 11.05859375 45.5390625 C13.50138639 44.86078205 15.14191905 43.70324087 17 42 C16.67 41.34 16.34 40.68 16 40 C17.32 40 18.64 40 20 40 C20 40.66 20 41.32 20 42 C21.65 42.33 23.3 42.66 25 43 C28.32765513 37.73121271 28.75878416 33.06015619 28 27 C26.38727433 23.31376989 25.369675 22.24645 22 20 C21.3125 17.875 21.3125 17.875 21 16 C20.34 16 19.68 16 19 16 C18.67 16.66 18.34 17.32 18 18 C16.02 17.67 14.04 17.34 12 17 C12.350625 17.61875 12.70125 18.2375 13.0625 18.875 C13.371875 19.57625 13.68125 20.2775 14 21 C13.67 21.66 13.34 22.32 13 23 C10.68925595 23.74118205 8.35188447 24.40206327 6 25 C4.9171875 25.3403125 4.9171875 25.3403125 3.8125 25.6875 C2 26 2 26 -0.125 25.4375 C-1.053125 25.2209375 -1.053125 25.2209375 -2 25 C-2.66 25.66 -3.32 26.32 -4 27 C-4 26.34 -4 25.68 -4 25 C-5.5778125 25.5259375 -5.5778125 25.5259375 -7.1875 26.0625 C-10.7954681 26.94970527 -12.52632489 27.05262882 -16 26 C-16 25.34 -16 24.68 -16 24 C-12.97265625 23.75585938 -12.97265625 23.75585938 -9.9453125 23.51171875 C-7.60480784 23.12606964 -7.60480784 23.12606964 -6 20 C-6.33 19.34 -6.66 18.68 -7 18 C-7.125 14.9375 -7.125 14.9375 -7 12 C-6.67 11.67 -6.34 11.34 -6 11 C0.53740377 11.1334164 4.10984232 13.8465414 9 18 C8.195625 17.21625 7.39125 16.4325 6.5625 15.625 C4 13 4 13 3 11 C7.55384615 10.63076923 7.55384615 10.63076923 9.8125 12.5 C10.204375 12.995 10.59625 13.49 11 14 C11.33 12.68 11.66 11.36 12 10 C12.99 10.33 13.98 10.66 15 11 C14.01 11.495 14.01 11.495 13 12 C13.33 12.66 13.66 13.32 14 14 C14.99 14.33 15.98 14.66 17 15 C16.53146378 12.00594421 16.53146378 12.00594421 15 9 C11.47548841 7.53977565 11.47548841 7.53977565 8 7 C8 7.66 8 8.32 8 9 C-0.415 9.495 -0.415 9.495 -9 10 C-6.50494038 7.50494038 -5.32671112 7.64051624 -1.875 7.375 C-0.96492187 7.30023438 -0.05484375 7.22546875 0.8828125 7.1484375 C1.58148438 7.09945312 2.28015625 7.05046875 3 7 C2.38722388 4.03824877 1.74627478 2.61941217 0 0 Z " fill="#401211" transform="translate(156,69)"/>
<path d="M0 0 C3.14737182 0.69941596 6.02588876 1.76078698 9 3 C9 3.99 9 4.98 9 6 C5.0186217 7.3271261 1.14954773 7.06915913 -3 7 C-3 7.66 -3 8.32 -3 9 C2.4185766 9.22577402 6.77487721 8.46670113 12 7 C17 12.375 17 12.375 17 18 C12.05 18 7.1 18 2 18 C8.93 18.495 8.93 18.495 16 19 C13.81818182 26.27272727 13.81818182 26.27272727 10.1875 29.5 C6.72219735 31.13073066 4.77221398 31.24077962 1 31 C0.195625 31.2475 -0.60875 31.495 -1.4375 31.75 C-5.35809308 32.13249689 -8.00334085 30.30853742 -11 28 C-14.45206422 24.21386504 -14.49886833 20.29449349 -14.3671875 15.37109375 C-13.85360549 12.05466523 -12.335849 10.335849 -10 8 C-9.67 7.01 -9.34 6.02 -9 5 C-7.88625 4.9175 -6.7725 4.835 -5.625 4.75 C-1.94246056 4.42126213 -1.94246056 4.42126213 -0.5625 1.9375 C-0.376875 1.298125 -0.19125 0.65875 0 0 Z " fill="#F7B578" transform="translate(143,86)"/>
<path d="M0 0 C0.99 0.33 1.98 0.66 3 1 C2.67 1.66 2.34 2.32 2 3 C2.86625 2.814375 3.7325 2.62875 4.625 2.4375 C8.05152628 1.99332067 10.64212371 2.28045508 14 3 C13.34 3.99 12.68 4.98 12 6 C12.99 6.66 13.98 7.32 15 8 C12.36 8 9.72 8 7 8 C7.33 7.34 7.66 6.68 8 6 C3.83861737 5.91840426 0.0527516 6.01751476 -4 7 C-4 6.34 -4 5.68 -4 5 C-11.07465883 7.05808257 -16.00543546 10.55453727 -21 16 C-21 16.66 -21 17.32 -21 18 C-20.57332031 17.566875 -20.14664063 17.13375 -19.70703125 16.6875 C-14.24630619 11.82351396 -9.95268959 11.3934286 -2.7578125 11.59375 C0 12 0 12 2 14 C5.63715353 14.38796304 9.25594045 14.50785545 12.91015625 14.65625 C13.92980469 14.7696875 14.94945312 14.883125 16 15 C16.495 15.99 16.495 15.99 17 17 C10.84203034 18.7594199 4.61719847 20.499814 -1.5625 17.9375 C-5.0211441 16.60725227 -7.4440159 17.14392975 -11 18 C-11.46019531 18.48597656 -11.92039062 18.97195312 -12.39453125 19.47265625 C-14.50807202 21.48334832 -16.21575545 21.73012323 -19.0625 22.25 C-19.94035156 22.42015625 -20.81820312 22.5903125 -21.72265625 22.765625 C-24 23 -24 23 -26 22 C-29.54171978 21.83330682 -29.54171978 21.83330682 -33 22 C-34.96822886 23.96822886 -34.66248381 27.34808709 -35 30 C-35.99 29.67 -36.98 29.34 -38 29 C-38.39450093 25.64674213 -37.94542417 23.87661116 -36.5625 20.75 C-34 18 -34 18 -32.01171875 17.75 C-31.26535156 17.75 -30.51898438 17.75 -29.75 17.75 C-26.30015163 17.63084405 -25.2981718 17.29976915 -22.8125 14.80078125 C-21.46908472 13.01719392 -20.16907479 11.19980123 -18.921875 9.34765625 C-16.74265532 6.68564196 -15.23226606 6.02774756 -12 5 C-10.4840625 4.2265625 -10.4840625 4.2265625 -8.9375 3.4375 C-6.53509715 2.26185605 -4.58107897 1.55308835 -2 1 C-1.34 0.67 -0.68 0.34 0 0 Z " fill="#502928" transform="translate(139,55)"/>
<path d="M0 0 C1.32 0.66 2.64 1.32 4 2 C3.85805236 4.06277107 3.71127784 6.12521031 3.5625 8.1875 C3.48128906 9.33605469 3.40007812 10.48460938 3.31640625 11.66796875 C3.04596188 14.51598171 2.62478253 17.21210482 2 20 C2.54269531 19.71125 3.08539063 19.4225 3.64453125 19.125 C4.35996094 18.75375 5.07539062 18.3825 5.8125 18 C6.52019531 17.62875 7.22789063 17.2575 7.95703125 16.875 C10 16 10 16 13 16 C13 16.66 13 17.32 13 18 C13.66 18 14.32 18 15 18 C15.66 19.98 16.32 21.96 17 24 C14.84370299 26.15629701 10.65358958 26.09856175 7.6875 26.625 C6.91470703 26.77195312 6.14191406 26.91890625 5.34570312 27.0703125 C4.59611328 27.204375 3.84652344 27.3384375 3.07421875 27.4765625 C2.38932373 27.60111816 1.70442871 27.72567383 0.9987793 27.85400391 C-1.21502176 28.01570575 -2.88787757 27.64465675 -5 27 C-7.43029347 19.70911958 -5.84078314 13.75382265 -3 7 C-2.62875 5.865625 -2.2575 4.73125 -1.875 3.5625 C-1 1 -1 1 0 0 Z " fill="#873424" transform="translate(106,95)"/>
<path d="M0 0 C3.14737182 0.69941596 6.02588876 1.76078698 9 3 C9 3.99 9 4.98 9 6 C5.0186217 7.3271261 1.14954773 7.06915913 -3 7 C-3 7.66 -3 8.32 -3 9 C2.4185766 9.22577402 6.77487721 8.46670113 12 7 C17.15625 12.54296875 17.15625 12.54296875 17 18 C12.89501791 17.91928281 8.79153891 17.80642513 4.6875 17.6875 C3.52025391 17.66494141 2.35300781 17.64238281 1.15039062 17.61914062 C0.03212891 17.58369141 -1.08613281 17.54824219 -2.23828125 17.51171875 C-3.26993408 17.48553467 -4.30158691 17.45935059 -5.36450195 17.43237305 C-8 17 -8 17 -9.87963867 15.60473633 C-11 14 -11 14 -10.6875 11.8125 C-10.3471875 10.9153125 -10.3471875 10.9153125 -10 10 C-8.68 9.67 -7.36 9.34 -6 9 C-6 8.01 -6 7.02 -6 6 C-6.99 6.495 -6.99 6.495 -8 7 C-7.67 6.01 -7.34 5.02 -7 4 C-5.35 4 -3.7 4 -2 4 C-1.34 2.68 -0.68 1.36 0 0 Z " fill="#F5B375" transform="translate(143,86)"/>
<path d="M0 0 C0.99 0.33 1.98 0.66 3 1 C3.12375 1.5775 3.2475 2.155 3.375 2.75 C4.29472292 6.06100251 6.55044059 7.67291856 9 10 C11.07813275 14.1562655 10.65449025 19.84246527 9.328125 24.21484375 C8.62256141 25.84229938 7.82050811 27.42735946 7 29 C5.02 28.34 3.04 27.68 1 27 C1 26.34 1 25.68 1 25 C0.01 24.67 -0.98 24.34 -2 24 C-1.34 22.35 -0.68 20.7 0 19 C-1.65 19 -3.3 19 -5 19 C-5.12727273 12.50909091 -5.12727273 12.50909091 -4.3125 9.25 C-4.209375 8.5075 -4.10625 7.765 -4 7 C-5.37514541 5.2912354 -5.37514541 5.2912354 -7 4 C-7 3.34 -7 2.68 -7 2 C-4.03 2.495 -4.03 2.495 -1 3 C-0.67 2.01 -0.34 1.02 0 0 Z " fill="#ECAB71" transform="translate(175,84)"/>
<path d="M0 0 C0.99 0 1.98 0 3 0 C5.66666667 0 8.33333333 0 11 0 C10.67 0.66 10.34 1.32 10 2 C11.98567708 1.93489583 13.97135417 1.86979167 15.95703125 1.8046875 C18 2 18 2 21 4 C21 6.33333333 21 8.66666667 21 11 C21.66 11.99 22.32 12.98 23 14 C22.01 14 21.02 14 20 14 C19.34 13.01 18.68 12.02 18 11 C14.71882164 10.48841497 14.71882164 10.48841497 11 10.4375 C4.2078473 10.2078473 4.2078473 10.2078473 2 8 C-3.52395414 7.10443785 -8.8669225 6.83146984 -13.859375 9.56640625 C-16.03538532 11.28157362 -18.05432619 13.02918829 -20 15 C-20.33 14.34 -20.66 13.68 -21 13 C-7.64298401 -3.82149201 -7.64298401 -3.82149201 0 0 Z " fill="#8E3C2C" transform="translate(137,60)"/>
<path d="M0 0 C1.25103516 0.0009668 1.25103516 0.0009668 2.52734375 0.00195312 C3.39488281 0.01806641 4.26242187 0.03417969 5.15625 0.05078125 C6.45755859 0.04594727 6.45755859 0.04594727 7.78515625 0.04101562 C14.25535409 0.09601731 14.25535409 0.09601731 17.65625 2.36328125 C18.07917803 5.11231342 18.09051293 6.67356953 16.59375 9.05078125 C11.01600582 12.82925311 4.17486567 13.05698528 -2.34375 12.36328125 C-5.46875 11.23828125 -5.46875 11.23828125 -7.34375 9.36328125 C-7.84375 6.36328125 -7.84375 6.36328125 -7.34375 3.36328125 C-5.13894635 0.4496076 -3.59174059 -0.01406588 0 0 Z " fill="#FCF9FC" transform="translate(388.34375,129.63671875)"/>
<path d="M0 0 C-1.02439024 8.70731707 -1.02439024 8.70731707 -3 12 C-7.54837978 13.9589892 -11.4588131 14.21775824 -16.375 14.125 C-17.62023437 14.10695312 -18.86546875 14.08890625 -20.1484375 14.0703125 C-21.55996094 14.03550781 -21.55996094 14.03550781 -23 14 C-21.39875626 9.96904293 -19.71786123 5.98231466 -18 2 C-15.33333333 2 -12.66666667 2 -10 2 C-9.05125 1.67 -8.1025 1.34 -7.125 1 C-4 0 -4 0 0 0 Z " fill="#FAD7B6" transform="translate(151,129)"/>
<path d="M0 0 C2.375 1.4375 2.375 1.4375 4 4 C4.83475324 8.56558914 4.55706623 11.95014442 2.375 16.0625 C0 18 0 18 -3 18.5625 C-6 18 -6 18 -8.375 16.625 C-10.88955418 12.56302787 -10.75641665 8.64655944 -10 4 C-7.39600113 -0.20645971 -4.7957648 -0.79929413 0 0 Z " fill="#FCF7FB" transform="translate(396,87)"/>
<path d="M0 0 C1.32 0 2.64 0 4 0 C2.25 3.875 2.25 3.875 0 5 C0.99 5.33 1.98 5.66 3 6 C3.70211894 7.65204456 4.36971413 9.31923769 5 11 C5.66 11.33 6.32 11.66 7 12 C6.65930765 15.15140423 6.41923159 16.60781561 4.0625 18.8125 C2 20 2 20 0 20 C0 17.03 0 14.06 0 11 C-0.66 11 -1.32 11 -2 11 C-2 13.31 -2 15.62 -2 18 C-2.66 18 -3.32 18 -4 18 C-4.33 18.99 -4.66 19.98 -5 21 C-9.54953042 25.46075909 -13.64642016 27.73526751 -20 28 C-20.33 27.34 -20.66 26.68 -21 26 C-18.03 25.01 -15.06 24.02 -12 23 C-12.33 22.34 -12.66 21.68 -13 21 C-12.401875 20.814375 -11.80375 20.62875 -11.1875 20.4375 C-8.11109329 18.70391549 -8.11109329 18.70391549 -6 12 C-17.385 11.505 -17.385 11.505 -29 11 C-29 10.67 -29 10.34 -29 10 C-11.32663145 7.8531266 -11.32663145 7.8531266 -4 10 C-3.32082055 7.96246166 -2.65458329 5.92057277 -2 3.875 C-1 1 -1 1 0 0 Z " fill="#59291F" transform="translate(164,94)"/>
<path d="M0 0 C1.65 0.33 3.3 0.66 5 1 C4.01 1.33 3.02 1.66 2 2 C2 2.99 2 3.98 2 5 C3.32 5.33 4.64 5.66 6 6 C4.35 6 2.7 6 1 6 C1 6.99 1 7.98 1 9 C1.99 9.33 2.98 9.66 4 10 C3.01 10 2.02 10 1 10 C1 10.99 1 11.98 1 13 C2.65 13 4.3 13 6 13 C5.125 17.875 5.125 17.875 4 19 C4.66 19.66 5.32 20.32 6 21 C0.9281123 24.57008199 -2.74681501 26.26433118 -9 27 C-10.92283085 28.41591827 -10.92283085 28.41591827 -12 30 C-12.75 28.25 -12.75 28.25 -13 26 C-11.1875 23.75 -11.1875 23.75 -9 22 C-8.34 22 -7.68 22 -7 22 C-7.185625 21.401875 -7.37125 20.80375 -7.5625 20.1875 C-8 18 -8 18 -7 15 C-6.34 15 -5.68 15 -5 15 C-4.67 14.01 -4.34 13.02 -4 12 C-3.91840426 16.16138263 -4.01751476 19.9472484 -5 24 C-0.70309161 21.66267575 -0.70309161 21.66267575 1.875 17.75 C1.91625 17.1725 1.9575 16.595 2 16 C1.360625 15.7525 0.72125 15.505 0.0625 15.25 C-2 14 -2 14 -2.75 11.875 C-2.8325 11.25625 -2.915 10.6375 -3 10 C-3.99 10 -4.98 10 -6 10 C-5.67 9.01 -5.34 8.02 -5 7 C-4.01 6.67 -3.02 6.34 -2 6 C-1.67 5.34 -1.34 4.68 -1 4 C-3.53744315 4.54708727 -3.53744315 4.54708727 -6 6 C-6.89830839 9.05272465 -6.89830839 9.05272465 -7 12 C-9.91488977 9.3765992 -11.88503898 6.28183606 -14 3 C-13.071875 3.20625 -12.14375 3.4125 -11.1875 3.625 C-7.84826598 4.36692966 -7.84826598 4.36692966 -5 2 C-2.3125 1.875 -2.3125 1.875 0 2 C0 1.34 0 0.68 0 0 Z " fill="#400E0D" transform="translate(169,90)"/>
<path d="M0 0 C-0.50771472 5.96564796 -2.38592128 10.63809899 -5 16 C-9.33021472 16 -10.94386639 13.77347901 -14.05859375 10.95703125 C-16.51420457 8.48165696 -18.24254412 6.00232046 -20 3 C-13.53081846 0.51185325 -6.90607344 -0.22277656 0 0 Z " fill="#B64AB0" transform="translate(122,124)"/>
<path d="M0 0 C2 3 2 3 2 5 C2.78375 5.144375 3.5675 5.28875 4.375 5.4375 C7 6 7 6 9 7 C9.86610417 9.94475418 9.99250863 12.41951661 9.9375 15.5 C9.99995726 18.99760659 10.20727713 21.01212855 12 24 C14.34754398 25.33903214 14.34754398 25.33903214 17 26 C17.62003906 26.19078125 18.24007812 26.3815625 18.87890625 26.578125 C21.29476624 27.05862754 23.13277397 26.86178662 25.5625 26.5 C28.68277534 26.03695745 29.91625283 25.97208428 33 27 C30.02819057 28.89865603 27.48539917 30.35455571 24 31 C24 31.99 24 32.98 24 34 C12.03870051 30.25031067 12.03870051 30.25031067 8 25 C7.67 24.01 7.34 23.02 7 22 C6.34 22 5.68 22 5 22 C5.33 21.01 5.66 20.02 6 19 C6 15.38970831 5.03907418 12.44193324 4 9 C3.01 9.33 2.02 9.66 1 10 C0 9 0 9 -0.09765625 6.93359375 C-0.08605469 6.10988281 -0.07445313 5.28617187 -0.0625 4.4375 C-0.05347656 3.61121094 -0.04445313 2.78492187 -0.03515625 1.93359375 C-0.02355469 1.29550781 -0.01195313 0.65742187 0 0 Z " fill="#370604" transform="translate(120,90)"/>
<path d="M0 0 C1.32 0 2.64 0 4 0 C4.33 0.99 4.66 1.98 5 3 C4.34 3 3.68 3 3 3 C3.66 4.65 4.32 6.3 5 8 C3.61341021 9.15700194 2.21527559 10.30017623 0.8125 11.4375 C0.03519531 12.07558594 -0.74210938 12.71367188 -1.54296875 13.37109375 C-4.13161523 15.08725525 -5.96237826 15.55224336 -9 16 C-9.70125 16.350625 -10.4025 16.70125 -11.125 17.0625 C-13 18 -13 18 -16 18 C-16 15.03 -16 12.06 -16 9 C-15.01 9.495 -15.01 9.495 -14 10 C-13.67 9.54625 -13.34 9.0925 -13 8.625 C-10.43685635 6.54244579 -8.12207769 6.23025813 -4.94140625 5.5390625 C-2.49861361 4.86078205 -0.85808095 3.70324087 1 2 C0.67 1.34 0.34 0.68 0 0 Z " fill="#833121" transform="translate(172,109)"/>
<path d="M0 0 C3.41886895 0.86161012 4.94716288 2.68936967 6.9375 5.48828125 C6.9375 7.13828125 6.9375 8.78828125 6.9375 10.48828125 C0.9975 10.48828125 -4.9425 10.48828125 -11.0625 10.48828125 C-11.0625 5.48828125 -11.0625 5.48828125 -9.0625 2.67578125 C-5.7135238 0.23381944 -4.04223056 -0.26795089 0 0 Z " fill="#FDFAFD" transform="translate(476.0625,88.51171875)"/>
<path d="M0 0 C1.76150391 -0.02126953 1.76150391 -0.02126953 3.55859375 -0.04296875 C6.5625 0.1875 6.5625 0.1875 8.5625 2.1875 C12.19965353 2.57546304 15.81844045 2.69535545 19.47265625 2.84375 C20.49230469 2.9571875 21.51195312 3.070625 22.5625 3.1875 C23.0575 4.1775 23.0575 4.1775 23.5625 5.1875 C17.40453034 6.9469199 11.17969847 8.687314 5 6.125 C1.5413559 4.79475227 -0.8815159 5.33142975 -4.4375 6.1875 C-6.36033085 7.60341827 -6.36033085 7.60341827 -7.4375 9.1875 C-8.4275 8.8575 -9.4175 8.5275 -10.4375 8.1875 C-7.02973553 0.038498 -7.02973553 0.038498 0 0 Z " fill="#4B150F" transform="translate(132.4375,66.8125)"/>
<path d="M0 0 C3.625 0.3125 3.625 0.3125 6.0625 1.4375 C8.2510738 4.06378857 7.91961899 5.99803637 7.625 9.3125 C5.975 7.6625 4.325 6.0125 2.625 4.3125 C1.635 4.8075 1.635 4.8075 0.625 5.3125 C0.79 5.910625 0.955 6.50875 1.125 7.125 C1.625 9.3125 1.625 9.3125 1.625 12.3125 C2.945 11.9825 4.265 11.6525 5.625 11.3125 C5.295 13.2925 4.965 15.2725 4.625 17.3125 C1.27210718 17.02510919 -0.41456604 16.28436415 -3.1875 14.3125 C-5.83111606 10.68696941 -5.87056665 8.65733259 -5.74609375 4.30078125 C-5.05366911 0.59084291 -3.59405721 0.33278307 0 0 Z " fill="#D09B74" transform="translate(109.375,75.6875)"/>
<path d="M0 0 C0.99 0.33 1.98 0.66 3 1 C8.14943278 1.4017339 8.14943278 1.4017339 13 0 C15.875 -0.375 15.875 -0.375 19 0 C20.32 1.65 21.64 3.3 23 5 C9.8 5 -3.4 5 -17 5 C-17 4.67 -17 4.34 -17 4 C-16.0925 3.731875 -15.185 3.46375 -14.25 3.1875 C-11.03265609 2.23179643 -11.03265609 2.23179643 -9.0625 0.3125 C-5.90640461 -1.69592434 -3.53757763 -0.77183512 0 0 Z " fill="#ECB995" transform="translate(137,72)"/>
<path d="M0 0 C3.13837611 -0.3077917 4.59343628 -0.27813784 7.23828125 1.53125 C7.92277344 2.1809375 8.60726562 2.830625 9.3125 3.5 C10.00988281 4.1496875 10.70726562 4.799375 11.42578125 5.46875 C11.94527344 5.9740625 12.46476563 6.479375 13 7 C11.35 4.69 9.7 2.38 8 0 C10.875 0.6875 10.875 0.6875 14 2 C15.375 4.625 15.375 4.625 16 7 C16.33 6.34 16.66 5.68 17 5 C18.65 5 20.3 5 22 5 C22.33 6.65 22.66 8.3 23 10 C20.525 9.505 20.525 9.505 18 9 C17.01 10.485 17.01 10.485 16 12 C13.2109375 12.4921875 13.2109375 12.4921875 10 12 C7.2265625 9.8828125 7.2265625 9.8828125 4.625 7.125 C3.75101563 6.22007813 2.87703125 5.31515625 1.9765625 4.3828125 C0 2 0 2 0 0 Z " fill="#5A1E37" transform="translate(125,78)"/>
<path d="M0 0 C1.32 0 2.64 0 4 0 C4.69685498 1.6210103 5.38222861 3.24696066 6.0625 4.875 C6.44535156 5.77992187 6.82820313 6.68484375 7.22265625 7.6171875 C8 10 8 10 7 12 C6.67 11.67 6.34 11.34 6 11 C5.67 11.66 5.34 12.32 5 13 C5.66 13 6.32 13 7 13 C11.76744186 17.30232558 11.76744186 17.30232558 13 21 C15.32891096 22.02700444 15.32891096 22.02700444 18.0625 22.6875 C18.98160156 22.93886719 19.90070313 23.19023438 20.84765625 23.44921875 C21.55792969 23.63097656 22.26820313 23.81273438 23 24 C22.67 24.66 22.34 25.32 22 26 C15.5131917 25.36714065 10.9657567 23.11696876 6.5625 18.375 C5 16 5 16 5 14 C4.34 14 3.68 14 3 14 C1.3125 12.4375 1.3125 12.4375 0 10 C0.3125 6.25 0.3125 6.25 1 3 C0.01 4.32 -0.98 5.64 -2 7 C-1.125 2.25 -1.125 2.25 0 0 Z " fill="#602119" transform="translate(120,99)"/>
<path d="M0 0 C0.66 0 1.32 0 2 0 C1.67 0.61875 1.34 1.2375 1 1.875 C-0.14193235 3.91018344 -0.14193235 3.91018344 0 6 C1.98 4.68 3.96 3.36 6 2 C5.875 4.8125 5.875 4.8125 5 8 C0.33305228 11.21500843 0.33305228 11.21500843 -2.9375 10.6875 C-3.9584375 10.3471875 -3.9584375 10.3471875 -5 10 C-7.33199388 9.92094936 -9.66832622 9.91201231 -12 10 C-13.96822886 11.96822886 -13.66248381 15.34808709 -14 18 C-14.99 17.67 -15.98 17.34 -17 17 C-17.39450093 13.64674213 -16.94542417 11.87661116 -15.5625 8.75 C-12.32104809 5.27136868 -10.65698972 5.52250452 -6.12109375 5.34375 C-3.66497835 5.16518863 -3.66497835 5.16518863 -1.5625 2.4375 C-1.046875 1.633125 -0.53125 0.82875 0 0 Z " fill="#411716" transform="translate(118,67)"/>
<path d="M0 0 C3 0 3 0 5 1 C2.9927092 4.0109362 2.16115776 4.63016497 -1 6 C-1 7.65 -1 9.3 -1 11 C2.96 11.33 6.92 11.66 11 12 C11 12.33 11 12.66 11 13 C5.555 13.495 5.555 13.495 0 14 C0.33 14.33 0.66 14.66 1 15 C0.01 15.33 -0.98 15.66 -2 16 C-0.70721656 19.87835033 1.67204128 21.81055347 5 24 C7.72113503 24.86542699 7.72113503 24.86542699 10 25 C9.67 25.66 9.34 26.32 9 27 C5.52672091 27.40862107 4.00537213 27.00290095 0.875 25.3125 C-2.79058649 22.36409347 -4.68000295 20.39405204 -5.31640625 15.6328125 C-5.51722611 11.26660004 -5.51328514 8.77820651 -3.0625 5.0625 C-2.381875 4.381875 -1.70125 3.70125 -1 3 C-0.67 2.01 -0.34 1.02 0 0 Z " fill="#B37950" transform="translate(134,91)"/>
<path d="M0 0 C3.61748556 0.46316592 5.86029538 2.15996696 8.6875 4.375 C9.47511719 4.98085937 10.26273438 5.58671875 11.07421875 6.2109375 C13 8 13 8 14 11 C10.52674819 12.1577506 7.63932552 12.06866652 4 12 C3.67 11.34 3.34 10.68 3 10 C2.01 9.67 1.02 9.34 0 9 C-1.36623674 6.26752652 -1.128426 4.01801098 -1 1 C-0.67 0.67 -0.34 0.34 0 0 Z " fill="#410F19" transform="translate(150,80)"/>
<path d="M0 0 C4.62 0 9.24 0 14 0 C12.80188679 5.99056604 12.80188679 5.99056604 10 9 C6.95990319 11.02673121 4.61138104 11.20063228 1 11 C0.67 10.34 0.34 9.68 0 9 C0.99 9 1.98 9 3 9 C2.67 8.01 2.34 7.02 2 6 C3.32 5.34 4.64 4.68 6 4 C6 3.34 6 2.68 6 2 C3.03 1.505 3.03 1.505 0 1 C0 0.67 0 0.34 0 0 Z " fill="#EEAC71" transform="translate(144,106)"/>
<path d="M0 0 C3 1 3 1 5 4 C4.9765625 6.69921875 4.9765625 6.69921875 4.625 9.6875 C4.45871094 11.17830078 4.45871094 11.17830078 4.2890625 12.69921875 C4.14597656 13.83810547 4.14597656 13.83810547 4 15 C3.34 15 2.68 15 2 15 C1.01 17.475 1.01 17.475 0 20 C-1.32 19.67 -2.64 19.34 -4 19 C-3.69320312 18.32582031 -3.38640625 17.65164062 -3.0703125 16.95703125 C-1.8300759 13.53053816 -1.34745509 10.29840679 -0.875 6.6875 C-0.70742187 5.43324219 -0.53984375 4.17898437 -0.3671875 2.88671875 C-0.24601562 1.93410156 -0.12484375 0.98148437 0 0 Z " fill="#822F1F" transform="translate(125,121)"/>
<path d="M0 0 C0.33 0 0.66 0 1 0 C1.08159574 4.16138263 0.98248524 7.9472484 0 12 C4.22271781 9.46636932 6.78310162 7.43379675 9 3 C9.33 3.99 9.66 4.98 10 6 C9.67 6.33 9.34 6.66 9 7 C9.66 7.66 10.32 8.32 11 9 C5.9281123 12.57008199 2.25318499 14.26433118 -4 15 C-5.92283085 16.41591827 -5.92283085 16.41591827 -7 18 C-7.75 16.25 -7.75 16.25 -8 14 C-6.1875 11.75 -6.1875 11.75 -4 10 C-3.34 10 -2.68 10 -2 10 C-2.185625 9.401875 -2.37125 8.80375 -2.5625 8.1875 C-3 6 -3 6 -2 3 C-1.34 3 -0.68 3 0 3 C0 2.01 0 1.02 0 0 Z " fill="#360607" transform="translate(164,102)"/>
<path d="M0 0 C-3.58794636 5.38191955 -8.69967012 8.49004873 -14 12 C-14.66 11.67 -15.32 11.34 -16 11 C-15.05153121 7.40510429 -13.97702185 4.16428101 -12 1 C-7.931276 -1.15187027 -4.33091651 -1.44363884 0 0 Z " fill="#B74FB1" transform="translate(166,130)"/>
<path d="M0 0 C3.14737182 0.69941596 6.02588876 1.76078698 9 3 C9 3.99 9 4.98 9 6 C5.0186217 7.3271261 1.14954773 7.06915913 -3 7 C-3 7.66 -3 8.32 -3 9 C-1.35 9 0.3 9 2 9 C2 9.33 2 9.66 2 10 C-0.31 10.33 -2.62 10.66 -5 11 C-5.33 9.68 -5.66 8.36 -6 7 C-6.66 7 -7.32 7 -8 7 C-7.67 6.01 -7.34 5.02 -7 4 C-5.35 4 -3.7 4 -2 4 C-1.34 2.68 -0.68 1.36 0 0 Z " fill="#E9BD9C" transform="translate(143,86)"/>
<path d="M0 0 C1.32 0.66 2.64 1.32 4 2 C4 2.66 4 3.32 4 4 C1.66836622 4.67258667 -0.6652039 5.33847444 -3 6 C-3.721875 6.226875 -4.44375 6.45375 -5.1875 6.6875 C-7 7 -7 7 -9.125 6.4375 C-10.053125 6.2209375 -10.053125 6.2209375 -11 6 C-11.66 6.66 -12.32 7.32 -13 8 C-13 7.34 -13 6.68 -13 6 C-14.051875 6.350625 -15.10375 6.70125 -16.1875 7.0625 C-19.7954681 7.94970527 -21.52632489 8.05262882 -25 7 C-25 6.34 -25 5.68 -25 5 C-21.92382812 4.70703125 -21.92382812 4.70703125 -18.84765625 4.4140625 C-18.23792969 4.27742188 -17.62820312 4.14078125 -17 4 C-16.67 3.34 -16.34 2.68 -16 2 C-13.9375 1.375 -13.9375 1.375 -12 1 C-11.67 1.99 -11.34 2.98 -11 4 C-5.93712184 3.27137506 -5.93712184 3.27137506 -1 2 C-0.67 1.34 -0.34 0.68 0 0 Z " fill="#893F59" transform="translate(165,88)"/>
<path d="M0 0 C0.99 0.33 1.98 0.66 3 1 C2.01 1.495 2.01 1.495 1 2 C1.95865509 4.33075929 1.95865509 4.33075929 5 6 C3.35 6.33 1.7 6.66 0 7 C0.66 8.32 1.32 9.64 2 11 C1.401875 10.835 0.80375 10.67 0.1875 10.5 C-2.11344336 9.8885876 -2.11344336 9.8885876 -5 10 C-7.48046875 8.25 -7.48046875 8.25 -10.1875 6 C-11.08855469 5.2575 -11.98960937 4.515 -12.91796875 3.75 C-13.94857422 2.88375 -13.94857422 2.88375 -15 2 C-14.34 1.67 -13.68 1.34 -13 1 C-9.7 3.31 -6.4 5.62 -3 8 C-3.804375 7.21625 -4.60875 6.4325 -5.4375 5.625 C-8 3 -8 3 -9 1 C-4.44615385 0.63076923 -4.44615385 0.63076923 -2.1875 2.5 C-1.795625 2.995 -1.40375 3.49 -1 4 C-0.67 2.68 -0.34 1.36 0 0 Z " fill="#582129" transform="translate(168,79)"/>
<path d="M0 0 C0.80179688 0.00451172 1.60359375 0.00902344 2.4296875 0.01367188 C4.41149006 0.02546832 6.39325433 0.04340395 8.375 0.0625 C8.045 1.0525 7.715 2.0425 7.375 3.0625 C9.24697454 5.75683317 9.24697454 5.75683317 11.375 8.0625 C11.045 8.7225 10.715 9.3825 10.375 10.0625 C9.86710937 9.5571875 9.35921875 9.051875 8.8359375 8.53125 C4.54203274 4.35205418 4.54203274 4.35205418 -1 2.5 C-3.76955834 2.84489082 -3.76955834 2.84489082 -5.625 5.0625 C-8.75 5.1875 -8.75 5.1875 -11.625 5.0625 C-11.25 3.125 -11.25 3.125 -10.625 1.0625 C-7.31505287 -0.59247356 -3.63377 -0.03834335 0 0 Z " fill="#993F86" transform="translate(127.625,75.9375)"/>
<path d="M0 0 C3.21524305 1.40844718 5.32183868 3.10344786 7.75 5.625 C8.67039063 6.57246094 8.67039063 6.57246094 9.609375 7.5390625 C10.29773438 8.26222656 10.29773438 8.26222656 11 9 C10.67 9.66 10.34 10.32 10 11 C3.69837297 10.40550688 3.69837297 10.40550688 1.0625 8.875 C-0.58420065 5.96905769 -0.18462917 3.26178195 0 0 Z " fill="#320206" transform="translate(123,81)"/>
<path d="M0 0 C0.66 0 1.32 0 2 0 C2 1.65 2 3.3 2 5 C1.67 4.34 1.34 3.68 1 3 C-0.0828125 3.495 -0.0828125 3.495 -1.1875 4 C-4.01697427 5.00603529 -6.02895466 5.16977402 -9 5 C-9.33 5.66 -9.66 6.32 -10 7 C-10.763125 6.835 -11.52625 6.67 -12.3125 6.5 C-15.03596236 5.90854604 -15.03596236 5.90854604 -18 6 C-17.67 4.68 -17.34 3.36 -17 2 C-13.98968256 1.06576355 -13.13349732 0.95550089 -10 2 C-7.73980671 1.94297026 -7.73980671 1.94297026 -5.375 1.625 C-4.18003906 1.48964844 -4.18003906 1.48964844 -2.9609375 1.3515625 C-1.00278017 1.19318916 -1.00278017 1.19318916 0 0 Z " fill="#94644D" transform="translate(150,126)"/>
<path d="M0 0 C2.25 -0.3125 2.25 -0.3125 5 0 C9 4.10810811 9 4.10810811 9 7 C9.66 7 10.32 7 11 7 C10.34 9.97 9.68 12.94 9 16 C8.34 15.01 7.68 14.02 7 13 C6.01 12.34 5.02 11.68 4 11 C4.99 10.67 5.98 10.34 7 10 C7.33 9.34 7.66 8.68 8 8 C6.68 8.33 5.36 8.66 4 9 C3.71125 7.88625 3.4225 6.7725 3.125 5.625 C2.30758671 1.99708908 2.30758671 1.99708908 0 0 Z " fill="#4A1A12" transform="translate(107,79)"/>
<path d="M0 0 C2 3 2 3 2 5 C2.78375 5.144375 3.5675 5.28875 4.375 5.4375 C7 6 7 6 9 7 C9.75 9.375 9.75 9.375 10 12 C8 15 8 15 6 16 C5.34 13.69 4.68 11.38 4 9 C3.01 9.33 2.02 9.66 1 10 C0 9 0 9 -0.09765625 6.93359375 C-0.08605469 6.10988281 -0.07445313 5.28617187 -0.0625 4.4375 C-0.05347656 3.61121094 -0.04445313 2.78492187 -0.03515625 1.93359375 C-0.02355469 1.29550781 -0.01195313 0.65742187 0 0 Z " fill="#3D0A07" transform="translate(120,90)"/>
<path d="M0 0 C5.18003071 0.33967414 7.95254401 0.6165087 12 4 C10.96939453 4.16435547 10.96939453 4.16435547 9.91796875 4.33203125 C9.01691406 4.49058594 8.11585938 4.64914063 7.1875 4.8125 C5.84751953 5.03873047 5.84751953 5.03873047 4.48046875 5.26953125 C1.81678744 6.05395393 0.74309678 6.88627799 -1 9 C-1.99 8.67 -2.98 8.34 -4 8 C-1.125 1.125 -1.125 1.125 0 0 Z " fill="#440D09" transform="translate(126,67)"/>
<path d="M0 0 C0.66 0 1.32 0 2 0 C2.433125 1.2065625 2.433125 1.2065625 2.875 2.4375 C3.73262568 5.1326468 3.73262568 5.1326468 6 6 C5.65930765 9.15140423 5.41923159 10.60781561 3.0625 12.8125 C1 14 1 14 -1 14 C-0.67 9.38 -0.34 4.76 0 0 Z " fill="#B347AC" transform="translate(165,100)"/>
<path d="M0 0 C0.66 0.33 1.32 0.66 2 1 C2.99 1 3.98 1 5 1 C7.66666667 1 10.33333333 1 13 1 C12.67 1.66 12.34 2.32 12 3 C14.97 3.495 14.97 3.495 18 4 C16.375 5.5625 16.375 5.5625 14 7 C10.8125 6.8125 10.8125 6.8125 8 6 C7.67 5.34 7.34 4.68 7 4 C2.545 4.495 2.545 4.495 -2 5 C-2.33 4.01 -2.66 3.02 -3 2 C-2.01 1.34 -1.02 0.68 0 0 Z " fill="#C8A7A0" transform="translate(135,59)"/>
<path d="M0 0 C0.53915039 0.15847412 1.07830078 0.31694824 1.63378906 0.48022461 C4.40557189 1.08909023 7.02288851 1.21510316 9.859375 1.31640625 C10.97441406 1.35830078 12.08945313 1.40019531 13.23828125 1.44335938 C14.39714844 1.48267578 15.55601562 1.52199219 16.75 1.5625 C18.51150391 1.62727539 18.51150391 1.62727539 20.30859375 1.69335938 C23.20561451 1.79934794 26.10271935 1.90141638 29 2 C29 2.33 29 2.66 29 3 C23.06 3.495 23.06 3.495 17 4 C17 4.33 17 4.66 17 5 C14.91846065 5.13536022 12.83438794 5.23215465 10.75 5.3125 C9.58984375 5.37050781 8.4296875 5.42851563 7.234375 5.48828125 C4 5 4 5 1.578125 2.48046875 C1.05734375 1.66191406 0.5365625 0.84335938 0 0 Z " fill="#DFB796" transform="translate(130,103)"/>
<path d="M0 0 C-0.8125 1.9375 -0.8125 1.9375 -2 4 C-2.99 4.33 -3.98 4.66 -5 5 C-5.33 5.99 -5.66 6.98 -6 8 C-8.06640625 9.60546875 -8.06640625 9.60546875 -10.5625 11.1875 C-11.38878906 11.71730469 -12.21507813 12.24710938 -13.06640625 12.79296875 C-13.70449219 13.19128906 -14.34257813 13.58960937 -15 14 C-13.64101764 9.77533744 -11.86283346 7.6105921 -8.5 4.75 C-7.30890625 3.72132812 -7.30890625 3.72132812 -6.09375 2.671875 C-2.74766355 0 -2.74766355 0 0 0 Z " fill="#B17C72" transform="translate(131,61)"/>
<path d="M0 0 C5.42857143 -0.36190476 5.42857143 -0.36190476 7.875 1.1875 C9.34781139 3.56036279 9.22223194 5.25913944 9 8 C7.68 7.67 6.36 7.34 5 7 C5.33 6.01 5.66 5.02 6 4 C5.34 3.67 4.68 3.34 4 3 C3.67 4.65 3.34 6.3 3 8 C0.9375 6.25 0.9375 6.25 -1 4 C-0.75 1.75 -0.75 1.75 0 0 Z " fill="#CE9090" transform="translate(164,76)"/>
<path d="M0 0 C0.39832031 0.50144531 0.79664063 1.00289062 1.20703125 1.51953125 C2.90350321 3.22742807 2.90350321 3.22742807 5.26171875 3.07421875 C6.06222656 2.94660156 6.86273438 2.81898437 7.6875 2.6875 C8.89986328 2.50767578 8.89986328 2.50767578 10.13671875 2.32421875 C10.75160156 2.21722656 11.36648437 2.11023437 12 2 C11.67 2.99 11.34 3.98 11 5 C9.68 5 8.36 5 7 5 C7 5.66 7 6.32 7 7 C3.04 7 -0.92 7 -5 7 C-3.68 5.68 -2.36 4.36 -1 3 C-0.67 2.01 -0.34 1.02 0 0 Z " fill="#8B3D2F" transform="translate(131,60)"/>
<path d="M0 0 C3.96 0.33 7.92 0.66 12 1 C12 3.97 12 6.94 12 10 C11.34 10 10.68 10 10 10 C9.67 8.02 9.34 6.04 9 4 C7.35 4 5.7 4 4 4 C3.34 5.32 2.68 6.64 2 8 C1.34 5.36 0.68 2.72 0 0 Z " fill="#A6409B" transform="translate(138,79)"/>
<path d="M0 0 C3 0 3 0 5 1 C2.9927092 4.0109362 2.16115776 4.63016497 -1 6 C-1 7.65 -1 9.3 -1 11 C2.96 11.33 6.92 11.66 11 12 C11 12.33 11 12.66 11 13 C9.20909747 13.19466332 7.41723495 13.38051213 5.625 13.5625 C4.12839844 13.71912109 4.12839844 13.71912109 2.6015625 13.87890625 C0 14 0 14 -2 13 C-2 12.34 -2 11.68 -2 11 C-2.99 10.67 -3.98 10.34 -5 10 C-3.66786942 6.4134946 -2.23083941 3.12317517 0 0 Z " fill="#C6895C" transform="translate(134,91)"/>
<path d="M0 0 C0.66 0.33 1.32 0.66 2 1 C2 1.66 2 2.32 2 3 C2.66 3 3.32 3 4 3 C4 4.98 4 6.96 4 9 C7.04913228 10.01111093 7.04913228 10.01111093 10 9 C9.67 10.65 9.34 12.3 9 14 C7.02 13.34 5.04 12.68 3 12 C3 11.34 3 10.68 3 10 C2.01 9.67 1.02 9.34 0 9 C0.66 7.35 1.32 5.7 2 4 C0.35 4 -1.3 4 -3 4 C-3 3.01 -3 2.02 -3 1 C-2.01 0.67 -1.02 0.34 0 0 Z " fill="#B77C51" transform="translate(173,99)"/>
<path d="M0 0 C3.62240697 0.6134053 5.81673131 2.12583577 8.6875 4.375 C9.47511719 4.98085937 10.26273438 5.58671875 11.07421875 6.2109375 C13 8 13 8 14 11 C10.21908383 9.65686815 7.34348084 7.97035316 4.1875 5.5 C3.39730469 4.8915625 2.60710937 4.283125 1.79296875 3.65625 C1.20128906 3.1096875 0.60960937 2.563125 0 2 C0 1.34 0 0.68 0 0 Z " fill="#310206" transform="translate(150,80)"/>
<path d="M0 0 C4.057041 0.53039297 5.94844566 2.57643552 8.75 5.4375 C9.54921875 6.24058594 10.3484375 7.04367188 11.171875 7.87109375 C13 10 13 10 13 12 C8.942959 11.46960703 7.05155434 9.42356448 4.25 6.5625 C3.45078125 5.75941406 2.6515625 4.95632812 1.828125 4.12890625 C0 2 0 2 0 0 Z " fill="#300104" transform="translate(125,78)"/>
<path d="M0 0 C0.56131481 6.45512034 -1.36536213 11.15439723 -4 17 C-5.98 16.67 -7.96 16.34 -10 16 C-9.01 15.67 -8.02 15.34 -7 15 C-4.83704508 11.58918647 -3.84406242 8.65326678 -3.4375 4.6875 C-3.293125 3.470625 -3.14875 2.25375 -3 1 C-1 0 -1 0 0 0 Z " fill="#4D221E" transform="translate(188,97)"/>
<path d="M0 0 C1.625 1.6875 1.625 1.6875 3 4 C2.375 6.375 2.375 6.375 1 9 C-1.2576476 13.32715791 -2.77801985 17.30007634 -4 22 C-5.30470605 18.33981791 -4.68104523 15.82607372 -3.6875 12.125 C-3.40648438 11.07054688 -3.12546875 10.01609375 -2.8359375 8.9296875 C-1.97706649 5.91962554 -1.06333272 2.94461368 0 0 Z " fill="#B75CAF" transform="translate(102,87)"/>
<path d="M0 0 C0.98484375 0.00902344 1.9696875 0.01804687 2.984375 0.02734375 C4.10585937 0.04474609 4.10585937 0.04474609 5.25 0.0625 C2.25 2.0625 2.25 2.0625 -0.75 3.0625 C0.075 3.68125 0.9 4.3 1.75 4.9375 C2.575 5.63875 3.4 6.34 4.25 7.0625 C4.25 7.7225 4.25 8.3825 4.25 9.0625 C0.66844487 7.40947456 -2.47328557 5.24697628 -5.75 3.0625 C-7.0691582 2.36820621 -8.39649406 1.68719505 -9.75 1.0625 C-6.43929162 0.06140485 -3.44915231 -0.04106134 0 0 Z " fill="#884A6E" transform="translate(160.75,77.9375)"/>
<path d="M0 0 C1.9375 0.3125 1.9375 0.3125 4 1 C4.33 1.99 4.66 2.98 5 4 C7.32891096 5.02700444 7.32891096 5.02700444 10.0625 5.6875 C10.98160156 5.93886719 11.90070313 6.19023438 12.84765625 6.44921875 C13.55792969 6.63097656 14.26820313 6.81273438 15 7 C14.67 7.66 14.34 8.32 14 9 C8.7024666 8.48316747 5.33237013 6.97319519 1 4 C0.0625 1.75 0.0625 1.75 0 0 Z " fill="#7F372A" transform="translate(128,116)"/>
<path d="M0 0 C0.33 0.66 0.66 1.32 1 2 C1.66 2 2.32 2 3 2 C5 4 5 4 5 7 C6.65 7 8.3 7 10 7 C9 10 9 10 6 12 C6 11.34 6 10.68 6 10 C5.360625 9.7525 4.72125 9.505 4.0625 9.25 C2 8 2 8 1.25 5.875 C1.1675 5.25625 1.085 4.6375 1 4 C0.01 4 -0.98 4 -2 4 C-1 1 -1 1 0 0 Z " fill="#451018" transform="translate(165,96)"/>
<path d="M0 0 C1.32 0 2.64 0 4 0 C2.25 3.875 2.25 3.875 0 5 C0.66 5.33 1.32 5.66 2 6 C1.34 7.65 0.68 9.3 0 11 C-0.66 11 -1.32 11 -2 11 C-2.33 12.32 -2.66 13.64 -3 15 C-4.35439668 12.29120665 -4.06501451 9.99066732 -4 7 C-3.67 7 -3.34 7 -3 7 C-2.690625 6.030625 -2.38125 5.06125 -2.0625 4.0625 C-1 1 -1 1 0 0 Z " fill="#703037" transform="translate(164,94)"/>
<path d="M0 0 C0.99 0.33 1.98 0.66 3 1 C3.33 2.65 3.66 4.3 4 6 C-3.42857143 6.28571429 -3.42857143 6.28571429 -7 4 C-7 3.34 -7 2.68 -7 2 C-4.03 2.495 -4.03 2.495 -1 3 C-0.67 2.01 -0.34 1.02 0 0 Z " fill="#DFAB80" transform="translate(175,84)"/>
<path d="M0 0 C2.9375 0.375 2.9375 0.375 6 1 C7.42006623 3.84013245 6.34520282 5.69060584 5.546875 8.625 C4.60892076 12.69840128 4.3239699 16.83954446 4 21 C3.01 21.33 2.02 21.66 1 22 C1.144375 21.21496094 1.28875 20.42992188 1.4375 19.62109375 C3.00951925 11.35336999 3.00951925 11.35336999 3 3 C1.64570159 1.05630262 1.64570159 1.05630262 0 0 Z " fill="#52140E" transform="translate(106,94)"/>
<path d="M0 0 C0 3 0 3 -1.50390625 4.5703125 C-6.08310084 8.02860367 -9.23391841 9.7597466 -15 10 C-15.33 9.34 -15.66 8.68 -16 8 C-13.03 7.01 -10.06 6.02 -7 5 C-7.33 4.34 -7.66 3.68 -8 3 C-6.865625 2.690625 -5.73125 2.38125 -4.5625 2.0625 C-1.21224901 1.37075469 -1.21224901 1.37075469 0 0 Z " fill="#722F23" transform="translate(159,112)"/>
<path d="M0 0 C1.65 0 3.3 0 5 0 C5.59732819 2.76264289 6 5.16032769 6 8 C7.32 7.67 8.64 7.34 10 7 C9.67 7.99 9.34 8.98 9 10 C7.35 10 5.7 10 4 10 C3.67 8.02 3.34 6.04 3 4 C2.01 4 1.02 4 0 4 C0 2.68 0 1.36 0 0 Z " fill="#C5885A" transform="translate(105,80)"/>
<path d="M0 0 C0.33 1.32 0.66 2.64 1 4 C-5.95268716 8.41228224 -10.9703351 8.23121528 -19 7 C-19 6.67 -19 6.34 -19 6 C-17.79601562 5.90203125 -16.59203125 5.8040625 -15.3515625 5.703125 C-13.77594773 5.55306645 -12.20043147 5.40197088 -10.625 5.25 C-9.8309375 5.188125 -9.036875 5.12625 -8.21875 5.0625 C-6.06699361 4.84367732 -4.07555098 4.61079513 -2 4 C-0.36541431 2.07628059 -0.36541431 2.07628059 0 0 Z " fill="#4E1F1F" transform="translate(150,137)"/>
<path d="M0 0 C4.62 0 9.24 0 14 0 C13.10429689 4.47851553 12.74999027 5.77175056 10 9 C9.34 8.67 8.68 8.34 8 8 C8.66 6.02 9.32 4.04 10 2 C6.7 1.67 3.4 1.34 0 1 C0 0.67 0 0.34 0 0 Z " fill="#B87E54" transform="translate(144,106)"/>
<path d="M0 0 C0.66 0.33 1.32 0.66 2 1 C-2.95 5.95 -7.9 10.9 -13 16 C-13 11.08924079 -9.30469813 8.39044878 -6 5 C-4.05397986 3.23549584 -2.07285289 1.6178364 0 0 Z " fill="#1D1D1D" transform="translate(80,46)"/>
<path d="M0 0 C0.625 1.8125 0.625 1.8125 1 4 C-1.57404971 7.86107457 -3.61020259 7.94319692 -8 9 C-7.875 7.25 -7.875 7.25 -7 5 C-4 2.8125 -4 2.8125 -1 1 C-0.67 0.67 -0.34 0.34 0 0 Z " fill="#833223" transform="translate(123,69)"/>
<path d="M0 0 C0.99 0.99 1.98 1.98 3 3 C1.91138672 3.15275391 1.91138672 3.15275391 0.80078125 3.30859375 C-2.29731653 4.07339613 -4.21088295 5.23748505 -6.8125 7.0625 C-7.60269531 7.61035156 -8.39289063 8.15820312 -9.20703125 8.72265625 C-9.79871094 9.14417969 -10.39039062 9.56570312 -11 10 C-11 8.68 -11 7.36 -11 6 C-10.484375 5.7525 -9.96875 5.505 -9.4375 5.25 C-6.22815849 3.60418384 -3.12414336 1.8023904 0 0 Z " fill="#583231" transform="translate(131,58)"/>
<path d="M0 0 C2 2 2 2 2.1953125 4.1640625 C2.17210938 4.97617188 2.14890625 5.78828125 2.125 6.625 C2.10695313 7.44226563 2.08890625 8.25953125 2.0703125 9.1015625 C2.04710938 9.72804688 2.02390625 10.35453125 2 11 C1.67 11 1.34 11 1 11 C0.67 8.69 0.34 6.38 0 4 C-5.94 4.33 -11.88 4.66 -18 5 C-14.46379565 2.64253044 -12.06871439 2.44987373 -7.875 1.9375 C-3.61113227 1.76713478 -3.61113227 1.76713478 0 0 Z " fill="#52140D" transform="translate(123,118)"/>
<path d="M0 0 C0.99 0.33 1.98 0.66 3 1 C3 3.33333333 3 5.66666667 3 8 C3.99 9.485 3.99 9.485 5 11 C4.01 11 3.02 11 2 11 C1.7525 10.21625 1.505 9.4325 1.25 8.625 C-0.15389099 5.67682892 -1.00675737 5.0975223 -4 4 C-3.01 4 -2.02 4 -1 4 C-0.67 2.68 -0.34 1.36 0 0 Z " fill="#633E3C" transform="translate(155,63)"/>
<path d="M0 0 C2.82328089 2.82328089 2.79396942 5.08541907 3 9 C1.5625 10.9375 1.5625 10.9375 0 12 C0 10.68 0 9.36 0 8 C-0.99 8.495 -0.99 8.495 -2 9 C-1.125 1.125 -1.125 1.125 0 0 Z " fill="#844034" transform="translate(117,90)"/>
<path d="M0 0 C0.99 0.33 1.98 0.66 3 1 C2.2884375 1.7734375 2.2884375 1.7734375 1.5625 2.5625 C-0.42809407 5.66782675 -0.65060818 8.36632504 -1 12 C-1.99 11.67 -2.98 11.34 -4 11 C-4.56638908 6.18569279 -2.82561627 3.79692186 0 0 Z " fill="#481F1C" transform="translate(105,73)"/>
<path d="M0 0 C0.33 0 0.66 0 1 0 C1.33 2.97 1.66 5.94 2 9 C0.68 9.33 -0.64 9.66 -2 10 C-2.1953125 3.9453125 -2.1953125 3.9453125 -2 2 C-1.34 1.34 -0.68 0.68 0 0 Z " fill="#953686" transform="translate(115,100)"/>
<path d="M0 0 C1.32 0 2.64 0 4 0 C3.49202991 4.3177458 2.80317221 8.03302114 1 12 C0.03929566 9.11788698 -0.10581883 7.30149956 -0.0625 4.3125 C-0.05347656 3.50425781 -0.04445312 2.69601563 -0.03515625 1.86328125 C-0.02355469 1.24839844 -0.01195312 0.63351563 0 0 Z " fill="#F1B279" transform="translate(147,129)"/>
<path d="M0 0 C1.98 0.495 1.98 0.495 4 1 C4 3.97 4 6.94 4 10 C3.01 10 2.02 10 1 10 C1.33 7.69 1.66 5.38 2 3 C1.01 3 0.02 3 -1 3 C-0.67 2.01 -0.34 1.02 0 0 Z " fill="#320205" transform="translate(120,121)"/>
<path d="M0 0 C0.721875 0.639375 1.44375 1.27875 2.1875 1.9375 C4.98191184 3.98673535 6.61663274 4.61332946 10 5 C9.67 5.66 9.34 6.32 9 7 C5.36029133 7.42820102 3.95430537 6.97413512 0.6875 5.125 C-0.199375 4.42375 -1.08625 3.7225 -2 3 C-2 2.34 -2 1.68 -2 1 C-1.34 0.67 -0.68 0.34 0 0 Z " fill="#A46B46" transform="translate(134,111)"/>
<path d="M0 0 C1.32 0 2.64 0 4 0 C4.625 2.875 4.625 2.875 5 6 C4.34 6.66 3.68 7.32 3 8 C2.34 6.35 1.68 4.7 1 3 C0.01 4.32 -0.98 5.64 -2 7 C-1.125 2.25 -1.125 2.25 0 0 Z " fill="#843E31" transform="translate(120,99)"/>
<path d="M0 0 C2.375 2.5 2.375 2.5 4 5 C0.125 4.125 0.125 4.125 -1 3 C-2.68608966 2.92794489 -4.37500659 2.91613932 -6.0625 2.9375 C-6.98160156 2.94652344 -7.90070313 2.95554687 -8.84765625 2.96484375 C-9.55792969 2.97644531 -10.26820313 2.98804687 -11 3 C-6.97018667 0.31345778 -4.89057531 -0.58686904 0 0 Z " fill="#EECDB2" transform="translate(156,72)"/>
<path d="M0 0 C0.33 0.66 0.66 1.32 1 2 C0.0625 4.125 0.0625 4.125 -1 6 C-0.34 6.66 0.32 7.32 1 8 C-3.75 7.125 -3.75 7.125 -6 6 C-4.95125002 3.37812506 -4.35068687 2.20628639 -1.875 0.75 C-1.25625 0.5025 -0.6375 0.255 0 0 Z " fill="#9A716C" transform="translate(154,62)"/>
<path d="M0 0 C2.64 0.33 5.28 0.66 8 1 C7.67 3.64 7.34 6.28 7 9 C4.08511023 6.3765992 2.11496102 3.28183606 0 0 Z " fill="#3A0807" transform="translate(155,93)"/>
<path d="M0 0 C0.33 0.66 0.66 1.32 1 2 C-2.21451269 3.60725635 -5.43612536 3.05748185 -9 3 C-9.33 2.34 -9.66 1.68 -10 1 C-6.52674819 -0.1577506 -3.63932552 -0.06866652 0 0 Z " fill="#FCD3AD" transform="translate(150,109)"/>
<path d="M0 0 C-0.33 0.99 -0.66 1.98 -1 3 C-4.69541586 3.95024979 -7.30458414 3.95024979 -11 3 C-11 2.34 -11 1.68 -11 1 C-3.375 0 -3.375 0 0 0 Z " fill="#6E3C29" transform="translate(151,92)"/>
<path d="M0 0 C2.66355234 -0.39169887 4.39224373 -0.40564529 6.66796875 1.11328125 C8.1510888 2.36389317 9.57954352 3.67864514 11 5 C10.34 5.66 9.68 6.32 9 7 C8.4225 6.54625 7.845 6.0925 7.25 5.625 C5.08751033 3.96479331 5.08751033 3.96479331 2.8125 2.9375 C1 2 1 2 0 0 Z " fill="#613E3C" transform="translate(165,73)"/>
<path d="M0 0 C0.33 0 0.66 0 1 0 C1.08159574 4.16138263 0.98248524 7.9472484 0 12 C-2.16295027 9.83704973 -2.5534013 8.94755143 -3 6 C-2.67 5.01 -2.34 4.02 -2 3 C-1.34 3 -0.68 3 0 3 C0 2.01 0 1.02 0 0 Z " fill="#37060C" transform="translate(164,102)"/>
<path d="M0 0 C2.125 0.375 2.125 0.375 4 1 C3.01 1.33 2.02 1.66 1 2 C1 2.66 1 3.32 1 4 C2.65 4 4.3 4 6 4 C6 4.33 6 4.66 6 5 C3.69 5.33 1.38 5.66 -1 6 C-1.625 4.125 -1.625 4.125 -2 2 C-1.34 1.34 -0.68 0.68 0 0 Z " fill="#DEA371" transform="translate(139,91)"/>
<path d="M0 0 C1.65 0 3.3 0 5 0 C5.33 1.65 5.66 3.3 6 5 C5.236875 4.79375 4.47375 4.5875 3.6875 4.375 C0.78114056 3.66608797 0.78114056 3.66608797 -2 6 C-1.34 4.02 -0.68 2.04 0 0 Z " fill="#420E14" transform="translate(142,83)"/>
<path d="M0 0 C1.12377697 3.30435084 0.89554742 5.0506862 -0.4375 8.25 C-0.72496094 8.95640625 -1.01242188 9.6628125 -1.30859375 10.390625 C-1.53675781 10.92171875 -1.76492187 11.4528125 -2 12 C-2.99 12 -3.98 12 -5 12 C-3.41037341 7.96479403 -1.71767682 3.98188718 0 0 Z " fill="#F1AF74" transform="translate(133,131)"/>
<path d="M0 0 C1.32 0.33 2.64 0.66 4 1 C4 1.99 4 2.98 4 4 C1 5 1 5 -2 4 C-1.34 2.68 -0.68 1.36 0 0 Z " fill="#DE9E68" transform="translate(143,86)"/>
<path d="M0 0 C0.66 0 1.32 0 2 0 C2.66 1.98 3.32 3.96 4 6 C3.01 6.495 3.01 6.495 2 7 C0.86649466 9.01669827 0.86649466 9.01669827 0 11 C-1.26026798 8.47946405 -0.91874445 7.1457902 -0.5625 4.375 C-0.46066406 3.55773437 -0.35882813 2.74046875 -0.25390625 1.8984375 C-0.17011719 1.27195312 -0.08632812 0.64546875 0 0 Z " fill="#A43E99" transform="translate(165,100)"/>
<path d="M0 0 C1.65 0 3.3 0 5 0 C5 0.66 5 1.32 5 2 C5.66 2 6.32 2 7 2 C7 4.31 7 6.62 7 9 C5.25372522 6.38058783 4.61277612 4.96175123 4 2 C3.01 2.33 2.02 2.66 1 3 C0.67 2.01 0.34 1.02 0 0 Z " fill="#4B100A" transform="translate(120,97)"/>
<path d="M0 0 C-0.8125 1.9375 -0.8125 1.9375 -2 4 C-2.99 4.33 -3.98 4.66 -5 5 C-5.33 5.99 -5.66 6.98 -6 8 C-6.66 8 -7.32 8 -8 8 C-8 7.34 -8 6.68 -8 6 C-7.34 6 -6.68 6 -6 6 C-5.71125 5.195625 -5.4225 4.39125 -5.125 3.5625 C-3.81204892 0.57188921 -3.2474503 0 0 0 Z " fill="#A76C60" transform="translate(131,61)"/>
<path d="M0 0 C0.66 1.32 1.32 2.64 2 4 C2.66 4 3.32 4 4 4 C4 6 4 6 2.5 7.625 C2.005 8.07875 1.51 8.5325 1 9 C0.01 8.67 -0.98 8.34 -2 8 C-1.34 7.67 -0.68 7.34 0 7 C0 4.69 0 2.38 0 0 Z " fill="#451A17" transform="translate(173,78)"/>
<path d="M0 0 C3.93673644 1.31224548 6.22719294 2.91910327 9 6 C8.67 6.66 8.34 7.32 8 8 C6.66372225 6.85760183 5.33104612 5.71098945 4 4.5625 C3.2575 3.92441406 2.515 3.28632812 1.75 2.62890625 C1.1725 2.09136719 0.595 1.55382812 0 1 C0 0.67 0 0.34 0 0 Z " fill="#A48792" transform="translate(130,78)"/>
<path d="M0 0 C5.41538462 -0.36923077 5.41538462 -0.36923077 8.375 1.5 C8.91125 1.995 9.4475 2.49 10 3 C9.34 3.66 8.68 4.32 8 5 C7.34 4.34 6.68 3.68 6 3 C4.01178687 2.60235737 2.01055661 2.26224651 0 2 C0 1.34 0 0.68 0 0 Z " fill="#D6AC90" transform="translate(107,76)"/>
<path d="M0 0 C0.66 0.33 1.32 0.66 2 1 C-0.68841859 3.25245881 -2.64641875 4.88213958 -6 6 C-8.1875 5.0625 -8.1875 5.0625 -10 4 C-8.906875 3.71125 -7.81375 3.4225 -6.6875 3.125 C-2.95986155 2.18106796 -2.95986155 2.18106796 0 0 Z " fill="#995547" transform="translate(172,112)"/>
<path d="M0 0 C1.32 0 2.64 0 4 0 C4.33 2.64 4.66 5.28 5 8 C4.01 8 3.02 8 2 8 C2.04125 7.236875 2.0825 6.47375 2.125 5.6875 C2.22080824 2.77281584 2.22080824 2.77281584 0 0 Z " fill="#430C0E" transform="translate(117,81)"/>
<path d="M0 0 C2.9375 0.75 2.9375 0.75 6 2 C6.875 4.125 6.875 4.125 7 6 C3.63279613 4.60667426 2.0140476 3.0210714 0 0 Z " fill="#38070E" transform="translate(133,78)"/>
<path d="M0 0 C5.75 0.75 5.75 0.75 8 3 C4.7 3 1.4 3 -2 3 C-1.34 2.01 -0.68 1.02 0 0 Z " fill="#6E3D2C" transform="translate(134,127)"/>
<path d="M0 0 C-1.97420135 2.52259061 -2.96745642 2.9929808 -6.1875 3.6875 C-7.5796875 3.8421875 -7.5796875 3.8421875 -9 4 C-9 3.34 -9 2.68 -9 2 C-5.86501708 0.14223235 -3.62528568 -0.20140476 0 0 Z " fill="#52140D" transform="translate(170,123)"/>
<path d="M0 0 C1.485 0.99 1.485 0.99 3 2 C2.67 4.64 2.34 7.28 2 10 C0.9375 8.125 0.9375 8.125 0 6 C0.33 5.34 0.66 4.68 1 4 C0.34 3.67 -0.32 3.34 -1 3 C-0.67 2.01 -0.34 1.02 0 0 Z " fill="#722C1F" transform="translate(117,82)"/>
<path d="M0 0 C3.43927579 1.2419607 6.25207819 2.55740284 9 5 C9 5.66 9 6.32 9 7 C5.18315774 5.44499019 2.80804268 2.96404505 0 0 Z " fill="#A48792" transform="translate(156,80)"/>
<path d="M0 0 C1.65 0 3.3 0 5 0 C5.33 1.65 5.66 3.3 6 5 C1.125 2.25 1.125 2.25 0 0 Z " fill="#410D1A" transform="translate(159,80)"/>
<path d="M0 0 C0 0.99 0 1.98 0 3 C-2.3125 3.6875 -2.3125 3.6875 -5 4 C-6.8125 2.5625 -6.8125 2.5625 -8 1 C-5.36 0.67 -2.72 0.34 0 0 Z " fill="#9B5345" transform="translate(142,62)"/>
<path d="M0 0 C0.99 0.99 1.98 1.98 3 3 C2.01 4.32 1.02 5.64 0 7 C-0.185625 6.071875 -0.185625 6.071875 -0.375 5.125 C-0.87197356 2.80879168 -0.87197356 2.80879168 -3 1 C-2.01 0.67 -1.02 0.34 0 0 Z " fill="#A6745D" transform="translate(152,89)"/>
<path d="M0 0 C-0.33 0.99 -0.66 1.98 -1 3 C-4.3 2.67 -7.6 2.34 -11 2 C-11 1.67 -11 1.34 -11 1 C-7.26513121 0.4254048 -3.78706732 0 0 0 Z " fill="#803C5D" transform="translate(136,76)"/>
<path d="M0 0 C0.33 0.66 0.66 1.32 1 2 C2.98 2 4.96 2 7 2 C7 2.33 7 2.66 7 3 C3.7 3.33 0.4 3.66 -3 4 C-2.01 2.68 -1.02 1.36 0 0 Z " fill="#EFB179" transform="translate(128,72)"/>
</svg>
